solid JSCAD
facet normal -0.7071067811865476 0.7071067811865476 0
outer loop
vertex -0.4825017333333334 0.49750106666666677 -0.06109000000000001
vertex -0.4799985333333334 0.5000042666666668 0.1222296666666667
vertex -0.4799985333333334 0.5000042666666668 0.08419493333333335
endloop
endfacet
facet normal -0.7071067811865476 0.7071067811865476 0
outer loop
vertex -0.4825017333333334 0.49750106666666677 -0.06109000000000001
vertex -0.4799985333333334 0.5000042666666668 0.08419493333333335
vertex -0.4799985333333334 0.5000042666666668 0.04292193333333334
endloop
endfacet
facet normal -0.7071067811865475 0.7071067811865475 0
outer loop
vertex -0.4825017333333334 0.49750106666666677 -0.06109000000000001
vertex -0.4799985333333334 0.5000042666666668 0.04292193333333334
vertex -0.4799985333333334 0.5000042666666668 0
endloop
endfacet
facet normal -0.7071067811865475 0.7071067811865475 0
outer loop
vertex -0.4825017333333334 0.49750106666666677 -0.06109000000000001
vertex -0.4799985333333334 0.5000042666666668 0
vertex -0.4799985333333334 0.5000042666666668 -0.04292193333333334
endloop
endfacet
facet normal -0.7071067811865476 0.7071067811865476 0
outer loop
vertex -0.4825017333333334 0.49750106666666677 -0.06109000000000001
vertex -0.4799985333333334 0.5000042666666668 -0.04292193333333334
vertex -0.4799985333333334 0.5000042666666668 -0.08419493333333335
endloop
endfacet
facet normal -0.7071067811865475 0.7071067811865475 0
outer loop
vertex -0.4825017333333334 0.49750106666666677 -0.06109000000000001
vertex -0.4799985333333334 0.5000042666666668 -0.08419493333333335
vertex -0.4799985333333334 0.5000042666666668 -0.1222296666666667
endloop
endfacet
facet normal -0.7071067811865476 0.7071067811865476 0
outer loop
vertex -0.4825017333333334 0.49750106666666677 -0.06109000000000001
vertex -0.4799985333333334 0.5000042666666668 -0.1222296666666667
vertex -0.4799985333333334 0.5000042666666668 -0.15556593333333338
endloop
endfacet
facet normal -0.7071067811865476 0.7071067811865476 0
outer loop
vertex -0.4825017333333334 0.49750106666666677 -0.06109000000000001
vertex -0.4799985333333334 0.5000042666666668 -0.15556593333333338
vertex -0.4799985333333334 0.5000042666666668 -0.18292233333333338
endloop
endfacet
facet normal -0.7071067811865476 0.7071067811865476 0
outer loop
vertex -0.4825017333333334 0.49750106666666677 -0.06109000000000001
vertex -0.4799985333333334 0.5000042666666668 -0.18292233333333338
vertex -0.4799985333333334 0.5000042666666668 -0.2032558666666667
endloop
endfacet
facet normal -0.7071067811865476 0.7071067811865476 0
outer loop
vertex -0.4825017333333334 0.49750106666666677 -0.06109000000000001
vertex -0.4799985333333334 0.5000042666666668 -0.2032558666666667
vertex -0.4799985333333334 0.5000042666666668 -0.2157718666666667
endloop
endfacet
facet normal -0.7071067811865476 0.7071067811865476 0
outer loop
vertex -0.4825017333333334 0.49750106666666677 -0.06109000000000001
vertex -0.4799985333333334 0.5000042666666668 -0.2157718666666667
vertex -0.4799985333333334 0.5000042666666668 -0.2200034666666667
endloop
endfacet
facet normal -0.7071067811865475 0.7071067811865475 0
outer loop
vertex -0.4825017333333334 0.49750106666666677 -0.06109000000000001
vertex -0.4799985333333334 0.5000042666666668 -0.2200034666666667
vertex -0.4799985333333334 0.5000042666666668 -0.4799985333333334
endloop
endfacet
facet normal -0.7071067811865475 0.7071067811865475 0
outer loop
vertex -0.4825017333333334 0.49750106666666677 -0.06109000000000001
vertex -0.4799985333333334 0.5000042666666668 -0.4799985333333334
vertex -0.5000042666666668 0.4799985333333334 -0.4799985333333334
endloop
endfacet
facet normal -0.7071067811865476 0.7071067811865476 0
outer loop
vertex -0.4825017333333334 0.49750106666666677 -0.06109000000000001
vertex -0.5000042666666668 0.4799985333333334 -0.4799985333333334
vertex -0.5000042666666668 0.4799985333333334 0.4799985333333334
endloop
endfacet
facet normal -0.7071067811865476 0.7071067811865476 0
outer loop
vertex -0.4825017333333334 0.49750106666666677 -0.06109000000000001
vertex -0.5000042666666668 0.4799985333333334 0.4799985333333334
vertex -0.4799985333333334 0.5000042666666668 0.4799985333333334
endloop
endfacet
facet normal -0.7071067811865476 0.7071067811865476 0
outer loop
vertex -0.4825017333333334 0.49750106666666677 -0.06109000000000001
vertex -0.4799985333333334 0.5000042666666668 0.4799985333333334
vertex -0.4799985333333334 0.5000042666666668 0.1222296666666667
endloop
endfacet
facet normal -1 0 0
outer loop
vertex -0.5000042666666668 0.4799985333333334 -0.4799985333333334
vertex -0.5000042666666668 -0.4799985333333334 -0.4799985333333334
vertex -0.5000042666666668 -0.4799985333333334 0.4799985333333334
endloop
endfacet
facet normal -1 0 0
outer loop
vertex -0.5000042666666668 0.4799985333333334 -0.4799985333333334
vertex -0.5000042666666668 -0.4799985333333334 0.4799985333333334
vertex -0.5000042666666668 0.4799985333333334 0.4799985333333334
endloop
endfacet
facet normal -0.7071067811865475 -0.7071067811865475 0
outer loop
vertex -0.4825017333333334 -0.49750106666666677 -0.06109993333333335
vertex -0.5000042666666668 -0.4799985333333334 -0.4799985333333334
vertex -0.4799985333333334 -0.5000042666666668 -0.4799985333333334
endloop
endfacet
facet normal -0.7071067811865476 -0.7071067811865476 0
outer loop
vertex -0.4825017333333334 -0.49750106666666677 -0.06109993333333335
vertex -0.4799985333333334 -0.5000042666666668 -0.4799985333333334
vertex -0.4799985333333334 -0.5000042666666668 -0.2200034666666667
endloop
endfacet
facet normal -0.7071067811865476 -0.7071067811865476 0
outer loop
vertex -0.4825017333333334 -0.49750106666666677 -0.06109993333333335
vertex -0.4799985333333334 -0.5000042666666668 -0.2200034666666667
vertex -0.4799985333333334 -0.5000042666666668 -0.2157718666666667
endloop
endfacet
facet normal -0.7071067811865476 -0.7071067811865476 0
outer loop
vertex -0.4825017333333334 -0.49750106666666677 -0.06109993333333335
vertex -0.4799985333333334 -0.5000042666666668 -0.2157718666666667
vertex -0.4799985333333334 -0.5000042666666668 -0.2032558666666667
endloop
endfacet
facet normal -0.7071067811865476 -0.7071067811865476 0
outer loop
vertex -0.4825017333333334 -0.49750106666666677 -0.06109993333333335
vertex -0.4799985333333334 -0.5000042666666668 -0.2032558666666667
vertex -0.4799985333333334 -0.5000042666666668 -0.18292233333333338
endloop
endfacet
facet normal -0.7071067811865476 -0.7071067811865476 0
outer loop
vertex -0.4825017333333334 -0.49750106666666677 -0.06109993333333335
vertex -0.4799985333333334 -0.5000042666666668 -0.18292233333333338
vertex -0.4799985333333334 -0.5000042666666668 -0.15556593333333338
endloop
endfacet
facet normal -0.7071067811865475 -0.7071067811865475 0
outer loop
vertex -0.4825017333333334 -0.49750106666666677 -0.06109993333333335
vertex -0.4799985333333334 -0.5000042666666668 -0.15556593333333338
vertex -0.4799985333333334 -0.5000042666666668 -0.1222296666666667
endloop
endfacet
facet normal -0.7071067811865475 -0.7071067811865475 0
outer loop
vertex -0.4825017333333334 -0.49750106666666677 -0.06109993333333335
vertex -0.4799985333333334 -0.5000042666666668 -0.1222296666666667
vertex -0.4799985333333334 -0.5000042666666668 -0.08419493333333335
endloop
endfacet
facet normal -0.7071067811865476 -0.7071067811865476 0
outer loop
vertex -0.4825017333333334 -0.49750106666666677 -0.06109993333333335
vertex -0.4799985333333334 -0.5000042666666668 -0.08419493333333335
vertex -0.4799985333333334 -0.5000042666666668 -0.04292193333333334
endloop
endfacet
facet normal -0.7071067811865475 -0.7071067811865475 0
outer loop
vertex -0.4825017333333334 -0.49750106666666677 -0.06109993333333335
vertex -0.4799985333333334 -0.5000042666666668 -0.04292193333333334
vertex -0.4799985333333334 -0.5000042666666668 0
endloop
endfacet
facet normal -0.7071067811865476 -0.7071067811865476 0
outer loop
vertex -0.4825017333333334 -0.49750106666666677 -0.06109993333333335
vertex -0.4799985333333334 -0.5000042666666668 0
vertex -0.4799985333333334 -0.5000042666666668 0.04292193333333334
endloop
endfacet
facet normal -0.7071067811865476 -0.7071067811865476 0
outer loop
vertex -0.4825017333333334 -0.49750106666666677 -0.06109993333333335
vertex -0.4799985333333334 -0.5000042666666668 0.04292193333333334
vertex -0.4799985333333334 -0.5000042666666668 0.08419493333333335
endloop
endfacet
facet normal -0.7071067811865475 -0.7071067811865475 0
outer loop
vertex -0.4825017333333334 -0.49750106666666677 -0.06109993333333335
vertex -0.4799985333333334 -0.5000042666666668 0.08419493333333335
vertex -0.4799985333333334 -0.5000042666666668 0.1222296666666667
endloop
endfacet
facet normal -0.7071067811865475 -0.7071067811865475 0
outer loop
vertex -0.4825017333333334 -0.49750106666666677 -0.06109993333333335
vertex -0.4799985333333334 -0.5000042666666668 0.1222296666666667
vertex -0.4799985333333334 -0.5000042666666668 0.4799985333333334
endloop
endfacet
facet normal -0.7071067811865475 -0.7071067811865475 0
outer loop
vertex -0.4825017333333334 -0.49750106666666677 -0.06109993333333335
vertex -0.4799985333333334 -0.5000042666666668 0.4799985333333334
vertex -0.5000042666666668 -0.4799985333333334 0.4799985333333334
endloop
endfacet
facet normal -0.7071067811865476 -0.7071067811865476 0
outer loop
vertex -0.4825017333333334 -0.49750106666666677 -0.06109993333333335
vertex -0.5000042666666668 -0.4799985333333334 0.4799985333333334
vertex -0.5000042666666668 -0.4799985333333334 -0.4799985333333334
endloop
endfacet
facet normal -0.5773502691896258 -0.5773502691896258 -0.5773502691896258
outer loop
vertex -0.4799985333333334 -0.5000042666666668 -0.4799985333333334
vertex -0.5000042666666668 -0.4799985333333334 -0.4799985333333334
vertex -0.4799985333333334 -0.4799985333333334 -0.5000042666666668
endloop
endfacet
facet normal -0.5773502691896258 0.5773502691896258 -0.5773502691896258
outer loop
vertex -0.5000042666666668 0.4799985333333334 -0.4799985333333334
vertex -0.4799985333333334 0.5000042666666668 -0.4799985333333334
vertex -0.4799985333333334 0.4799985333333334 -0.5000042666666668
endloop
endfacet
facet normal 0 -0.7071067811865475 -0.7071067811865475
outer loop
vertex 0.4799985333333334 -0.5000042666666668 -0.4799985333333334
vertex -0.4799985333333334 -0.5000042666666668 -0.4799985333333334
vertex -0.4799985333333334 -0.4799985333333334 -0.5000042666666668
endloop
endfacet
facet normal 0 -0.7071067811865475 -0.7071067811865475
outer loop
vertex 0.4799985333333334 -0.5000042666666668 -0.4799985333333334
vertex -0.4799985333333334 -0.4799985333333334 -0.5000042666666668
vertex 0.4799985333333334 -0.4799985333333334 -0.5000042666666668
endloop
endfacet
facet normal -0.7071067811865475 0 -0.7071067811865475
outer loop
vertex -0.5000042666666668 -0.4799985333333334 -0.4799985333333334
vertex -0.5000042666666668 0.4799985333333334 -0.4799985333333334
vertex -0.4799985333333334 0.4799985333333334 -0.5000042666666668
endloop
endfacet
facet normal -0.7071067811865475 0 -0.7071067811865475
outer loop
vertex -0.5000042666666668 -0.4799985333333334 -0.4799985333333334
vertex -0.4799985333333334 0.4799985333333334 -0.5000042666666668
vertex -0.4799985333333334 -0.4799985333333334 -0.5000042666666668
endloop
endfacet
facet normal 0 0.7071067811865475 -0.7071067811865475
outer loop
vertex -0.4799985333333334 0.5000042666666668 -0.4799985333333334
vertex 0.4799985333333334 0.5000042666666668 -0.4799985333333334
vertex 0.4799985333333334 0.4799985333333334 -0.5000042666666668
endloop
endfacet
facet normal 0 0.7071067811865475 -0.7071067811865475
outer loop
vertex -0.4799985333333334 0.5000042666666668 -0.4799985333333334
vertex 0.4799985333333334 0.4799985333333334 -0.5000042666666668
vertex -0.4799985333333334 0.4799985333333334 -0.5000042666666668
endloop
endfacet
facet normal 0 0 -1
outer loop
vertex 0.4799985333333334 -0.4799985333333334 -0.5000042666666668
vertex -0.4799985333333334 -0.4799985333333334 -0.5000042666666668
vertex -0.4799985333333334 0.4799985333333334 -0.5000042666666668
endloop
endfacet
facet normal 0 0 -1
outer loop
vertex 0.4799985333333334 -0.4799985333333334 -0.5000042666666668
vertex -0.4799985333333334 0.4799985333333334 -0.5000042666666668
vertex 0.4799985333333334 0.4799985333333334 -0.5000042666666668
endloop
endfacet
facet normal -0.5773502691896258 0.5773502691896258 0.5773502691896258
outer loop
vertex -0.4799985333333334 0.5000042666666668 0.4799985333333334
vertex -0.5000042666666668 0.4799985333333334 0.4799985333333334
vertex -0.4900014000000001 0.4799985333333334 0.4900014000000001
endloop
endfacet
facet normal -0.5773502691896258 -0.5773502691896258 0.5773502691896258
outer loop
vertex -0.4900014000000001 -0.4799985333333334 0.4900014000000001
vertex -0.5000042666666668 -0.4799985333333334 0.4799985333333334
vertex -0.4799985333333334 -0.5000042666666668 0.4799985333333334
endloop
endfacet
facet normal -0.7071067811865475 0 0.7071067811865475
outer loop
vertex -0.4900014000000001 0.4799985333333334 0.4900014000000001
vertex -0.5000042666666668 0.4799985333333334 0.4799985333333334
vertex -0.5000042666666668 -0.4799985333333334 0.4799985333333334
endloop
endfacet
facet normal -0.7071067811865475 0 0.7071067811865475
outer loop
vertex -0.4900014000000001 0.4799985333333334 0.4900014000000001
vertex -0.5000042666666668 -0.4799985333333334 0.4799985333333334
vertex -0.4900014000000001 -0.4799985333333334 0.4900014000000001
endloop
endfacet
facet normal 0.5773502691896258 -0.5773502691896258 -0.5773502691896258
outer loop
vertex 0.4900014000000001 -0.4799985333333334 -0.4900014000000001
vertex 0.4799985333333334 -0.5000042666666668 -0.4799985333333334
vertex 0.4799985333333334 -0.4799985333333334 -0.5000042666666668
endloop
endfacet
facet normal 0.5773502691896258 0.5773502691896258 -0.5773502691896258
outer loop
vertex 0.4799985333333334 0.5000042666666668 -0.4799985333333334
vertex 0.4900014000000001 0.4799985333333334 -0.4900014000000001
vertex 0.4799985333333334 0.4799985333333334 -0.5000042666666668
endloop
endfacet
facet normal 0.7071067811865475 0 -0.7071067811865475
outer loop
vertex 0.4900014000000001 0.4799985333333334 -0.4900014000000001
vertex 0.4900014000000001 -0.4799985333333334 -0.4900014000000001
vertex 0.4799985333333334 -0.4799985333333334 -0.5000042666666668
endloop
endfacet
facet normal 0.7071067811865475 0 -0.7071067811865475
outer loop
vertex 0.4900014000000001 0.4799985333333334 -0.4900014000000001
vertex 0.4799985333333334 -0.4799985333333334 -0.5000042666666668
vertex 0.4799985333333334 0.4799985333333334 -0.5000042666666668
endloop
endfacet
facet normal 0.7071067811865476 0 0.7071067811865476
outer loop
vertex 0.2611175333333334 0 -0.2611175333333334
vertex 0.2200034666666667 0.5000042666666668 -0.2200034666666667
vertex 0.2157718666666667 0.5000042666666668 -0.2157718666666667
endloop
endfacet
facet normal 0.7071067811865476 0 0.7071067811865476
outer loop
vertex 0.2611175333333334 0 -0.2611175333333334
vertex 0.2157718666666667 0.5000042666666668 -0.2157718666666667
vertex 0.2032558666666667 0.5000042666666668 -0.2032558666666667
endloop
endfacet
facet normal 0.7071067811865475 0 0.7071067811865475
outer loop
vertex 0.2611175333333334 0 -0.2611175333333334
vertex 0.2032558666666667 0.5000042666666668 -0.2032558666666667
vertex 0.18292233333333338 0.5000042666666668 -0.18292233333333338
endloop
endfacet
facet normal 0.7071067811865476 0 0.7071067811865476
outer loop
vertex 0.2611175333333334 0 -0.2611175333333334
vertex 0.18292233333333338 0.5000042666666668 -0.18292233333333338
vertex 0.15556593333333338 0.5000042666666668 -0.15556593333333338
endloop
endfacet
facet normal 0.7071067811865476 0 0.7071067811865476
outer loop
vertex 0.2611175333333334 0 -0.2611175333333334
vertex 0.15556593333333338 0.5000042666666668 -0.15556593333333338
vertex 0.1414208666666667 0.4799985333333334 -0.1414208666666667
endloop
endfacet
facet normal 0.7071067811865475 0 0.7071067811865475
outer loop
vertex 0.2611175333333334 0 -0.2611175333333334
vertex 0.1414208666666667 0.4799985333333334 -0.1414208666666667
vertex 0.1414208666666667 -0.4799985333333334 -0.1414208666666667
endloop
endfacet
facet normal 0.7071067811865476 0 0.7071067811865476
outer loop
vertex 0.2611175333333334 0 -0.2611175333333334
vertex 0.1414208666666667 -0.4799985333333334 -0.1414208666666667
vertex 0.15556593333333338 -0.5000042666666668 -0.15556593333333338
endloop
endfacet
facet normal 0.7071067811865476 0 0.7071067811865476
outer loop
vertex 0.2611175333333334 0 -0.2611175333333334
vertex 0.15556593333333338 -0.5000042666666668 -0.15556593333333338
vertex 0.18292233333333338 -0.5000042666666668 -0.18292233333333338
endloop
endfacet
facet normal 0.7071067811865475 0 0.7071067811865475
outer loop
vertex 0.2611175333333334 0 -0.2611175333333334
vertex 0.18292233333333338 -0.5000042666666668 -0.18292233333333338
vertex 0.2032558666666667 -0.5000042666666668 -0.2032558666666667
endloop
endfacet
facet normal 0.7071067811865476 0 0.7071067811865476
outer loop
vertex 0.2611175333333334 0 -0.2611175333333334
vertex 0.2032558666666667 -0.5000042666666668 -0.2032558666666667
vertex 0.2157718666666667 -0.5000042666666668 -0.2157718666666667
endloop
endfacet
facet normal 0.7071067811865476 0 0.7071067811865476
outer loop
vertex 0.2611175333333334 0 -0.2611175333333334
vertex 0.2157718666666667 -0.5000042666666668 -0.2157718666666667
vertex 0.2200034666666667 -0.5000042666666668 -0.2200034666666667
endloop
endfacet
facet normal 0.7071067811865475 0 0.7071067811865475
outer loop
vertex 0.2611175333333334 0 -0.2611175333333334
vertex 0.2200034666666667 -0.5000042666666668 -0.2200034666666667
vertex 0.4799985333333334 -0.5000042666666668 -0.4799985333333334
endloop
endfacet
facet normal 0.7071067811865476 0 0.7071067811865476
outer loop
vertex 0.2611175333333334 0 -0.2611175333333334
vertex 0.4799985333333334 -0.5000042666666668 -0.4799985333333334
vertex 0.4900014000000001 -0.4799985333333334 -0.4900014000000001
endloop
endfacet
facet normal 0.7071067811865475 0 0.7071067811865475
outer loop
vertex 0.2611175333333334 0 -0.2611175333333334
vertex 0.4900014000000001 -0.4799985333333334 -0.4900014000000001
vertex 0.4900014000000001 0.4799985333333334 -0.4900014000000001
endloop
endfacet
facet normal 0.7071067811865476 0 0.7071067811865476
outer loop
vertex 0.2611175333333334 0 -0.2611175333333334
vertex 0.4900014000000001 0.4799985333333334 -0.4900014000000001
vertex 0.4799985333333334 0.5000042666666668 -0.4799985333333334
endloop
endfacet
facet normal 0.7071067811865475 0 0.7071067811865475
outer loop
vertex 0.2611175333333334 0 -0.2611175333333334
vertex 0.4799985333333334 0.5000042666666668 -0.4799985333333334
vertex 0.2200034666666667 0.5000042666666668 -0.2200034666666667
endloop
endfacet
facet normal 0.7071067811865475 0 0.7071067811865475
outer loop
vertex -0.3167442000000001 0 0.3167442000000001
vertex -0.4799985333333334 0.5000042666666668 0.4799985333333334
vertex -0.4900014000000001 0.4799985333333334 0.4900014000000001
endloop
endfacet
facet normal 0.7071067811865476 0 0.7071067811865476
outer loop
vertex -0.3167442000000001 0 0.3167442000000001
vertex -0.4900014000000001 0.4799985333333334 0.4900014000000001
vertex -0.4900014000000001 -0.4799985333333334 0.4900014000000001
endloop
endfacet
facet normal 0.7071067811865475 0 0.7071067811865475
outer loop
vertex -0.3167442000000001 0 0.3167442000000001
vertex -0.4900014000000001 -0.4799985333333334 0.4900014000000001
vertex -0.4799985333333334 -0.5000042666666668 0.4799985333333334
endloop
endfacet
facet normal 0.7071067811865475 0 0.7071067811865475
outer loop
vertex -0.3167442000000001 0 0.3167442000000001
vertex -0.4799985333333334 -0.5000042666666668 0.4799985333333334
vertex -0.15556593333333338 -0.5000042666666668 0.15556593333333338
endloop
endfacet
facet normal 0.7071067811865476 0 0.7071067811865476
outer loop
vertex -0.3167442000000001 0 0.3167442000000001
vertex -0.15556593333333338 -0.5000042666666668 0.15556593333333338
vertex -0.1414208666666667 -0.4799985333333334 0.1414208666666667
endloop
endfacet
facet normal 0.7071067811865476 0 0.7071067811865476
outer loop
vertex -0.3167442000000001 0 0.3167442000000001
vertex -0.1414208666666667 -0.4799985333333334 0.1414208666666667
vertex -0.1414208666666667 0.4799985333333334 0.1414208666666667
endloop
endfacet
facet normal 0.7071067811865476 0 0.7071067811865476
outer loop
vertex -0.3167442000000001 0 0.3167442000000001
vertex -0.1414208666666667 0.4799985333333334 0.1414208666666667
vertex -0.15556593333333338 0.5000042666666668 0.15556593333333338
endloop
endfacet
facet normal 0.7071067811865475 0 0.7071067811865475
outer loop
vertex -0.3167442000000001 0 0.3167442000000001
vertex -0.15556593333333338 0.5000042666666668 0.15556593333333338
vertex -0.4799985333333334 0.5000042666666668 0.4799985333333334
endloop
endfacet
facet normal -0.44972154515436435 0.7053273061347478 0.5479634322148429
outer loop
vertex 0.1222296666666667 0.5000042666666668 -0.18292233333333338
vertex 0.11111426666666668 0.4799985333333334 -0.16629393333333337
vertex 0.1414208666666667 0.4799985333333334 -0.1414208666666667
endloop
endfacet
facet normal -0.44966433690684493 0.7053687939444181 0.5479569770004983
outer loop
vertex 0.1222296666666667 0.5000042666666668 -0.18292233333333338
vertex 0.1414208666666667 0.4799985333333334 -0.1414208666666667
vertex 0.15556593333333338 0.5000042666666668 -0.15556593333333338
endloop
endfacet
facet normal -0.3342238423457002 0.7053101350777587 0.6251656073107911
outer loop
vertex 0.08419493333333335 0.5000042666666668 -0.2032558666666667
vertex 0.07653633333333335 0.4799985333333334 -0.1847798666666667
vertex 0.11111426666666668 0.4799985333333334 -0.16629393333333337
endloop
endfacet
facet normal -0.3342146825989656 0.7053170642309905 0.62516268669831
outer loop
vertex 0.08419493333333335 0.5000042666666668 -0.2032558666666667
vertex 0.11111426666666668 0.4799985333333334 -0.16629393333333337
vertex 0.1222296666666667 0.5000042666666668 -0.18292233333333338
endloop
endfacet
facet normal -0.2056469009248978 0.7053579102091184 0.6783653666317367
outer loop
vertex 0.04292193333333334 0.5000042666666668 -0.2157718666666667
vertex 0.039018133333333344 0.4799985333333334 -0.19615353333333338
vertex 0.07653633333333335 0.4799985333333334 -0.1847798666666667
endloop
endfacet
facet normal -0.2057271418623178 0.7052918300815396 0.6784097416174052
outer loop
vertex 0.04292193333333334 0.5000042666666668 -0.2157718666666667
vertex 0.07653633333333335 0.4799985333333334 -0.1847798666666667
vertex 0.08419493333333335 0.5000042666666668 -0.2032558666666667
endloop
endfacet
facet normal -0.06949813141353735 0.7053970547606598 0.7053970547606598
outer loop
vertex 0 0.5000042666666668 -0.2200034666666667
vertex 0 0.4799985333333334 -0.19999773333333337
vertex 0.039018133333333344 0.4799985333333334 -0.19615353333333338
endloop
endfacet
facet normal -0.06954804602999089 0.7053499691001487 0.7054392180647666
outer loop
vertex 0 0.5000042666666668 -0.2200034666666667
vertex 0.039018133333333344 0.4799985333333334 -0.19615353333333338
vertex 0.04292193333333334 0.5000042666666668 -0.2157718666666667
endloop
endfacet
facet normal 0.06954804602999089 0.7053499691001487 0.7054392180647666
outer loop
vertex 0 0.5000042666666668 -0.2200034666666667
vertex -0.04292193333333334 0.5000042666666668 -0.2157718666666667
vertex -0.039018133333333344 0.4799985333333334 -0.19615353333333338
endloop
endfacet
facet normal 0.06949813141353735 0.7053970547606598 0.7053970547606598
outer loop
vertex 0 0.5000042666666668 -0.2200034666666667
vertex -0.039018133333333344 0.4799985333333334 -0.19615353333333338
vertex 0 0.4799985333333334 -0.19999773333333337
endloop
endfacet
facet normal 0.2057271418623178 0.7052918300815396 0.6784097416174052
outer loop
vertex -0.04292193333333334 0.5000042666666668 -0.2157718666666667
vertex -0.08419493333333335 0.5000042666666668 -0.2032558666666667
vertex -0.07653633333333335 0.4799985333333334 -0.1847798666666667
endloop
endfacet
facet normal 0.2056469009248978 0.7053579102091184 0.6783653666317367
outer loop
vertex -0.04292193333333334 0.5000042666666668 -0.2157718666666667
vertex -0.07653633333333335 0.4799985333333334 -0.1847798666666667
vertex -0.039018133333333344 0.4799985333333334 -0.19615353333333338
endloop
endfacet
facet normal 0.3342146825989656 0.7053170642309905 0.62516268669831
outer loop
vertex -0.08419493333333335 0.5000042666666668 -0.2032558666666667
vertex -0.1222296666666667 0.5000042666666668 -0.18292233333333338
vertex -0.11111426666666668 0.4799985333333334 -0.16629393333333337
endloop
endfacet
facet normal 0.3342238423457002 0.7053101350777587 0.6251656073107911
outer loop
vertex -0.08419493333333335 0.5000042666666668 -0.2032558666666667
vertex -0.11111426666666668 0.4799985333333334 -0.16629393333333337
vertex -0.07653633333333335 0.4799985333333334 -0.1847798666666667
endloop
endfacet
facet normal 0.44966433690684493 0.7053687939444181 0.5479569770004983
outer loop
vertex -0.1222296666666667 0.5000042666666668 -0.18292233333333338
vertex -0.15556593333333338 0.5000042666666668 -0.15556593333333338
vertex -0.1414208666666667 0.4799985333333334 -0.1414208666666667
endloop
endfacet
facet normal 0.44972154515436435 0.7053273061347478 0.5479634322148429
outer loop
vertex -0.1222296666666667 0.5000042666666668 -0.18292233333333338
vertex -0.1414208666666667 0.4799985333333334 -0.1414208666666667
vertex -0.11111426666666668 0.4799985333333334 -0.16629393333333337
endloop
endfacet
facet normal 0.5479569770004983 0.7053687939444182 0.44966433690684493
outer loop
vertex -0.1414208666666667 0.4799985333333334 -0.1414208666666667
vertex -0.15556593333333338 0.5000042666666668 -0.15556593333333338
vertex -0.18292233333333338 0.5000042666666668 -0.1222296666666667
endloop
endfacet
facet normal 0.5479634322148429 0.7053273061347478 0.44972154515436435
outer loop
vertex -0.1414208666666667 0.4799985333333334 -0.1414208666666667
vertex -0.18292233333333338 0.5000042666666668 -0.1222296666666667
vertex -0.16629393333333337 0.4799985333333334 -0.11111426666666668
endloop
endfacet
facet normal 0.62516268669831 0.7053170642309905 0.3342146825989656
outer loop
vertex -0.16629393333333337 0.4799985333333334 -0.11111426666666668
vertex -0.18292233333333338 0.5000042666666668 -0.1222296666666667
vertex -0.2032558666666667 0.5000042666666668 -0.08419493333333335
endloop
endfacet
facet normal 0.625165607310791 0.7053101350777586 0.33422384234570024
outer loop
vertex -0.16629393333333337 0.4799985333333334 -0.11111426666666668
vertex -0.2032558666666667 0.5000042666666668 -0.08419493333333335
vertex -0.1847798666666667 0.4799985333333334 -0.07653633333333335
endloop
endfacet
facet normal 0.6784097416174053 0.7052918300815396 0.20572714186231783
outer loop
vertex -0.1847798666666667 0.4799985333333334 -0.07653633333333335
vertex -0.2032558666666667 0.5000042666666668 -0.08419493333333335
vertex -0.2157718666666667 0.5000042666666668 -0.04292193333333334
endloop
endfacet
facet normal 0.6783653666317369 0.7053579102091182 0.2056469009248978
outer loop
vertex -0.1847798666666667 0.4799985333333334 -0.07653633333333335
vertex -0.2157718666666667 0.5000042666666668 -0.04292193333333334
vertex -0.19615353333333338 0.4799985333333334 -0.039018133333333344
endloop
endfacet
facet normal 0.7054459056179949 0.705347726281941 0.06950294436714956
outer loop
vertex -0.19999773333333337 0.4799985333333334 0
vertex -0.19615353333333338 0.4799985333333334 -0.039018133333333344
vertex -0.2157718666666667 0.5000042666666668 -0.04292193333333334
endloop
endfacet
facet normal 0.70539481081229 0.70539481081229 0.06954366799491686
outer loop
vertex -0.19999773333333337 0.4799985333333334 0
vertex -0.2157718666666667 0.5000042666666668 -0.04292193333333334
vertex -0.2200034666666667 0.5000042666666668 0
endloop
endfacet
facet normal 0.7053970547606598 0.7053970547606598 -0.06949813141353736
outer loop
vertex -0.19615353333333338 0.4799985333333334 0.039018133333333344
vertex -0.19999773333333337 0.4799985333333334 0
vertex -0.2200034666666667 0.5000042666666668 0
endloop
endfacet
facet normal 0.7054392180647667 0.7053499691001489 -0.0695480460299909
outer loop
vertex -0.19615353333333338 0.4799985333333334 0.039018133333333344
vertex -0.2200034666666667 0.5000042666666668 0
vertex -0.2157718666666667 0.5000042666666668 0.04292193333333334
endloop
endfacet
facet normal 0.6783653666317369 0.7053579102091182 -0.2056469009248978
outer loop
vertex -0.1847798666666667 0.4799985333333334 0.07653633333333335
vertex -0.19615353333333338 0.4799985333333334 0.039018133333333344
vertex -0.2157718666666667 0.5000042666666668 0.04292193333333334
endloop
endfacet
facet normal 0.6784097416174053 0.7052918300815396 -0.20572714186231783
outer loop
vertex -0.1847798666666667 0.4799985333333334 0.07653633333333335
vertex -0.2157718666666667 0.5000042666666668 0.04292193333333334
vertex -0.2032558666666667 0.5000042666666668 0.08419493333333335
endloop
endfacet
facet normal 0.625165607310791 0.7053101350777586 -0.33422384234570024
outer loop
vertex -0.16629393333333337 0.4799985333333334 0.11111426666666668
vertex -0.1847798666666667 0.4799985333333334 0.07653633333333335
vertex -0.2032558666666667 0.5000042666666668 0.08419493333333335
endloop
endfacet
facet normal 0.62516268669831 0.7053170642309905 -0.3342146825989656
outer loop
vertex -0.16629393333333337 0.4799985333333334 0.11111426666666668
vertex -0.2032558666666667 0.5000042666666668 0.08419493333333335
vertex -0.18292233333333338 0.5000042666666668 0.1222296666666667
endloop
endfacet
facet normal 0.5479634322148429 0.7053273061347478 -0.44972154515436435
outer loop
vertex -0.1414208666666667 0.4799985333333334 0.1414208666666667
vertex -0.16629393333333337 0.4799985333333334 0.11111426666666668
vertex -0.18292233333333338 0.5000042666666668 0.1222296666666667
endloop
endfacet
facet normal 0.5479569770004983 0.7053687939444182 -0.44966433690684493
outer loop
vertex -0.1414208666666667 0.4799985333333334 0.1414208666666667
vertex -0.18292233333333338 0.5000042666666668 0.1222296666666667
vertex -0.15556593333333338 0.5000042666666668 0.15556593333333338
endloop
endfacet
facet normal 0 1 0
outer loop
vertex -0.15556593333333338 0.5000042666666668 0.15556593333333338
vertex -0.18292233333333338 0.5000042666666668 0.1222296666666667
vertex -0.4799985333333334 0.5000042666666668 0.1222296666666667
endloop
endfacet
facet normal 0 1 0
outer loop
vertex -0.15556593333333338 0.5000042666666668 0.15556593333333338
vertex -0.4799985333333334 0.5000042666666668 0.1222296666666667
vertex -0.4799985333333334 0.5000042666666668 0.4799985333333334
endloop
endfacet
facet normal 0 1 0
outer loop
vertex -0.18292233333333338 0.5000042666666668 0.1222296666666667
vertex -0.2032558666666667 0.5000042666666668 0.08419493333333335
vertex -0.4799985333333334 0.5000042666666668 0.08419493333333335
endloop
endfacet
facet normal 0 1 0
outer loop
vertex -0.18292233333333338 0.5000042666666668 0.1222296666666667
vertex -0.4799985333333334 0.5000042666666668 0.08419493333333335
vertex -0.4799985333333334 0.5000042666666668 0.1222296666666667
endloop
endfacet
facet normal 0 1 0
outer loop
vertex -0.2032558666666667 0.5000042666666668 0.08419493333333335
vertex -0.2157718666666667 0.5000042666666668 0.04292193333333334
vertex -0.4799985333333334 0.5000042666666668 0.04292193333333334
endloop
endfacet
facet normal 0 1 0
outer loop
vertex -0.2032558666666667 0.5000042666666668 0.08419493333333335
vertex -0.4799985333333334 0.5000042666666668 0.04292193333333334
vertex -0.4799985333333334 0.5000042666666668 0.08419493333333335
endloop
endfacet
facet normal 0 1 0
outer loop
vertex -0.2157718666666667 0.5000042666666668 0.04292193333333334
vertex -0.2200034666666667 0.5000042666666668 0
vertex -0.4799985333333334 0.5000042666666668 0
endloop
endfacet
facet normal 0 1 0
outer loop
vertex -0.2157718666666667 0.5000042666666668 0.04292193333333334
vertex -0.4799985333333334 0.5000042666666668 0
vertex -0.4799985333333334 0.5000042666666668 0.04292193333333334
endloop
endfacet
facet normal 0 1 0
outer loop
vertex -0.2200034666666667 0.5000042666666668 0
vertex -0.2157718666666667 0.5000042666666668 -0.04292193333333334
vertex -0.4799985333333334 0.5000042666666668 -0.04292193333333334
endloop
endfacet
facet normal 0 1 0
outer loop
vertex -0.2200034666666667 0.5000042666666668 0
vertex -0.4799985333333334 0.5000042666666668 -0.04292193333333334
vertex -0.4799985333333334 0.5000042666666668 0
endloop
endfacet
facet normal 0 1 0
outer loop
vertex -0.2157718666666667 0.5000042666666668 -0.04292193333333334
vertex -0.2032558666666667 0.5000042666666668 -0.08419493333333335
vertex -0.4799985333333334 0.5000042666666668 -0.08419493333333335
endloop
endfacet
facet normal 0 1 0
outer loop
vertex -0.2157718666666667 0.5000042666666668 -0.04292193333333334
vertex -0.4799985333333334 0.5000042666666668 -0.08419493333333335
vertex -0.4799985333333334 0.5000042666666668 -0.04292193333333334
endloop
endfacet
facet normal 0 1 0
outer loop
vertex -0.2032558666666667 0.5000042666666668 -0.08419493333333335
vertex -0.18292233333333338 0.5000042666666668 -0.1222296666666667
vertex -0.4799985333333334 0.5000042666666668 -0.1222296666666667
endloop
endfacet
facet normal 0 1 0
outer loop
vertex -0.2032558666666667 0.5000042666666668 -0.08419493333333335
vertex -0.4799985333333334 0.5000042666666668 -0.1222296666666667
vertex -0.4799985333333334 0.5000042666666668 -0.08419493333333335
endloop
endfacet
facet normal 0 1 0
outer loop
vertex -0.18292233333333338 0.5000042666666668 -0.1222296666666667
vertex -0.15556593333333338 0.5000042666666668 -0.15556593333333338
vertex -0.4799985333333334 0.5000042666666668 -0.15556593333333338
endloop
endfacet
facet normal 0 1 0
outer loop
vertex -0.18292233333333338 0.5000042666666668 -0.1222296666666667
vertex -0.4799985333333334 0.5000042666666668 -0.15556593333333338
vertex -0.4799985333333334 0.5000042666666668 -0.1222296666666667
endloop
endfacet
facet normal 0 1 0
outer loop
vertex -0.15556593333333338 0.5000042666666668 -0.15556593333333338
vertex -0.1222296666666667 0.5000042666666668 -0.18292233333333338
vertex -0.4799985333333334 0.5000042666666668 -0.18292233333333338
endloop
endfacet
facet normal 0 1 0
outer loop
vertex -0.15556593333333338 0.5000042666666668 -0.15556593333333338
vertex -0.4799985333333334 0.5000042666666668 -0.18292233333333338
vertex -0.4799985333333334 0.5000042666666668 -0.15556593333333338
endloop
endfacet
facet normal 0 1 0
outer loop
vertex 0.18292233333333338 0.5000042666666668 -0.18292233333333338
vertex 0.1222296666666667 0.5000042666666668 -0.18292233333333338
vertex 0.15556593333333338 0.5000042666666668 -0.15556593333333338
endloop
endfacet
facet normal 0 1 0
outer loop
vertex -0.1222296666666667 0.5000042666666668 -0.18292233333333338
vertex -0.08419493333333335 0.5000042666666668 -0.2032558666666667
vertex -0.4799985333333334 0.5000042666666668 -0.2032558666666667
endloop
endfacet
facet normal 0 0.9999999999999999 0
outer loop
vertex -0.1222296666666667 0.5000042666666668 -0.18292233333333338
vertex -0.4799985333333334 0.5000042666666668 -0.2032558666666667
vertex -0.4799985333333334 0.5000042666666668 -0.18292233333333338
endloop
endfacet
facet normal 0 1 0
outer loop
vertex 0.18292233333333338 0.5000042666666668 -0.18292233333333338
vertex 0.2032558666666667 0.5000042666666668 -0.2032558666666667
vertex 0.08419493333333335 0.5000042666666668 -0.2032558666666667
endloop
endfacet
facet normal 0 1 0
outer loop
vertex 0.18292233333333338 0.5000042666666668 -0.18292233333333338
vertex 0.08419493333333335 0.5000042666666668 -0.2032558666666667
vertex 0.1222296666666667 0.5000042666666668 -0.18292233333333338
endloop
endfacet
facet normal 0 1 0
outer loop
vertex -0.08419493333333335 0.5000042666666668 -0.2032558666666667
vertex -0.04292193333333334 0.5000042666666668 -0.2157718666666667
vertex -0.4799985333333334 0.5000042666666668 -0.2157718666666667
endloop
endfacet
facet normal 0 1 0
outer loop
vertex -0.08419493333333335 0.5000042666666668 -0.2032558666666667
vertex -0.4799985333333334 0.5000042666666668 -0.2157718666666667
vertex -0.4799985333333334 0.5000042666666668 -0.2032558666666667
endloop
endfacet
facet normal 0 1 0
outer loop
vertex 0.2032558666666667 0.5000042666666668 -0.2032558666666667
vertex 0.2157718666666667 0.5000042666666668 -0.2157718666666667
vertex 0.04292193333333334 0.5000042666666668 -0.2157718666666667
endloop
endfacet
facet normal 0 1 0
outer loop
vertex 0.2032558666666667 0.5000042666666668 -0.2032558666666667
vertex 0.04292193333333334 0.5000042666666668 -0.2157718666666667
vertex 0.08419493333333335 0.5000042666666668 -0.2032558666666667
endloop
endfacet
facet normal 0 1 0
outer loop
vertex -0.04292193333333334 0.5000042666666668 -0.2157718666666667
vertex 0 0.5000042666666668 -0.2200034666666667
vertex -0.4799985333333334 0.5000042666666668 -0.2200034666666667
endloop
endfacet
facet normal 0 1 0
outer loop
vertex -0.04292193333333334 0.5000042666666668 -0.2157718666666667
vertex -0.4799985333333334 0.5000042666666668 -0.2200034666666667
vertex -0.4799985333333334 0.5000042666666668 -0.2157718666666667
endloop
endfacet
facet normal 0 0.9999999999999999 0
outer loop
vertex 0.2157718666666667 0.5000042666666668 -0.2157718666666667
vertex 0.2200034666666667 0.5000042666666668 -0.2200034666666667
vertex 0 0.5000042666666668 -0.2200034666666667
endloop
endfacet
facet normal 0 1 0
outer loop
vertex 0.2157718666666667 0.5000042666666668 -0.2157718666666667
vertex 0 0.5000042666666668 -0.2200034666666667
vertex 0.04292193333333334 0.5000042666666668 -0.2157718666666667
endloop
endfacet
facet normal 0 1 0
outer loop
vertex -0.05200100000000001 0.5000042666666668 -0.32400546666666674
vertex 0 0.5000042666666668 -0.2200034666666667
vertex 0.2200034666666667 0.5000042666666668 -0.2200034666666667
endloop
endfacet
facet normal 0 1 0
outer loop
vertex -0.05200100000000001 0.5000042666666668 -0.32400546666666674
vertex 0.2200034666666667 0.5000042666666668 -0.2200034666666667
vertex 0.4799985333333334 0.5000042666666668 -0.4799985333333334
endloop
endfacet
facet normal 0 1 0
outer loop
vertex -0.05200100000000001 0.5000042666666668 -0.32400546666666674
vertex 0.4799985333333334 0.5000042666666668 -0.4799985333333334
vertex -0.4799985333333334 0.5000042666666668 -0.4799985333333334
endloop
endfacet
facet normal 0 0.9999999999999999 0
outer loop
vertex -0.05200100000000001 0.5000042666666668 -0.32400546666666674
vertex -0.4799985333333334 0.5000042666666668 -0.4799985333333334
vertex -0.4799985333333334 0.5000042666666668 -0.2200034666666667
endloop
endfacet
facet normal 0 1 0
outer loop
vertex -0.05200100000000001 0.5000042666666668 -0.32400546666666674
vertex -0.4799985333333334 0.5000042666666668 -0.2200034666666667
vertex 0 0.5000042666666668 -0.2200034666666667
endloop
endfacet
facet normal 0.7054392180647668 -0.7053499691001489 0.06954804602999091
outer loop
vertex -0.2200034666666667 -0.5000042666666668 0
vertex -0.2157718666666667 -0.5000042666666668 -0.04292193333333334
vertex -0.19615353333333338 -0.4799985333333334 -0.039018133333333344
endloop
endfacet
facet normal 0.7053970547606598 -0.7053970547606598 0.06949813141353735
outer loop
vertex -0.2200034666666667 -0.5000042666666668 0
vertex -0.19615353333333338 -0.4799985333333334 -0.039018133333333344
vertex -0.19999773333333337 -0.4799985333333334 0
endloop
endfacet
facet normal 0.6784097416174052 -0.7052918300815396 0.2057271418623178
outer loop
vertex -0.2157718666666667 -0.5000042666666668 -0.04292193333333334
vertex -0.2032558666666667 -0.5000042666666668 -0.08419493333333335
vertex -0.1847798666666667 -0.4799985333333334 -0.07653633333333335
endloop
endfacet
facet normal 0.6783653666317367 -0.7053579102091184 0.2056469009248978
outer loop
vertex -0.2157718666666667 -0.5000042666666668 -0.04292193333333334
vertex -0.1847798666666667 -0.4799985333333334 -0.07653633333333335
vertex -0.19615353333333338 -0.4799985333333334 -0.039018133333333344
endloop
endfacet
facet normal 0.62516268669831 -0.7053170642309905 0.3342146825989656
outer loop
vertex -0.2032558666666667 -0.5000042666666668 -0.08419493333333335
vertex -0.18292233333333338 -0.5000042666666668 -0.1222296666666667
vertex -0.16629393333333337 -0.4799985333333334 -0.11111426666666668
endloop
endfacet
facet normal 0.6251656073107911 -0.7053101350777587 0.3342238423457002
outer loop
vertex -0.2032558666666667 -0.5000042666666668 -0.08419493333333335
vertex -0.16629393333333337 -0.4799985333333334 -0.11111426666666668
vertex -0.1847798666666667 -0.4799985333333334 -0.07653633333333335
endloop
endfacet
facet normal 0.5479569770004983 -0.7053687939444181 0.44966433690684493
outer loop
vertex -0.18292233333333338 -0.5000042666666668 -0.1222296666666667
vertex -0.15556593333333338 -0.5000042666666668 -0.15556593333333338
vertex -0.1414208666666667 -0.4799985333333334 -0.1414208666666667
endloop
endfacet
facet normal 0.5479634322148429 -0.7053273061347478 0.44972154515436435
outer loop
vertex -0.18292233333333338 -0.5000042666666668 -0.1222296666666667
vertex -0.1414208666666667 -0.4799985333333334 -0.1414208666666667
vertex -0.16629393333333337 -0.4799985333333334 -0.11111426666666668
endloop
endfacet
facet normal 0.44966433690684493 -0.7053687939444182 0.5479569770004983
outer loop
vertex -0.1414208666666667 -0.4799985333333334 -0.1414208666666667
vertex -0.15556593333333338 -0.5000042666666668 -0.15556593333333338
vertex -0.1222296666666667 -0.5000042666666668 -0.18292233333333338
endloop
endfacet
facet normal 0.44972154515436435 -0.7053273061347478 0.5479634322148429
outer loop
vertex -0.1414208666666667 -0.4799985333333334 -0.1414208666666667
vertex -0.1222296666666667 -0.5000042666666668 -0.18292233333333338
vertex -0.11111426666666668 -0.4799985333333334 -0.16629393333333337
endloop
endfacet
facet normal 0.3342146825989656 -0.7053170642309905 0.62516268669831
outer loop
vertex -0.11111426666666668 -0.4799985333333334 -0.16629393333333337
vertex -0.1222296666666667 -0.5000042666666668 -0.18292233333333338
vertex -0.08419493333333335 -0.5000042666666668 -0.2032558666666667
endloop
endfacet
facet normal 0.33422384234570035 -0.7053101350777587 0.6251656073107911
outer loop
vertex -0.11111426666666668 -0.4799985333333334 -0.16629393333333337
vertex -0.08419493333333335 -0.5000042666666668 -0.2032558666666667
vertex -0.07653633333333335 -0.4799985333333334 -0.1847798666666667
endloop
endfacet
facet normal 0.20572714186231783 -0.7052918300815396 0.6784097416174053
outer loop
vertex -0.07653633333333335 -0.4799985333333334 -0.1847798666666667
vertex -0.08419493333333335 -0.5000042666666668 -0.2032558666666667
vertex -0.04292193333333334 -0.5000042666666668 -0.2157718666666667
endloop
endfacet
facet normal 0.2056469009248978 -0.7053579102091182 0.6783653666317369
outer loop
vertex -0.07653633333333335 -0.4799985333333334 -0.1847798666666667
vertex -0.04292193333333334 -0.5000042666666668 -0.2157718666666667
vertex -0.039018133333333344 -0.4799985333333334 -0.19615353333333338
endloop
endfacet
facet normal 0.06950294436714956 -0.705347726281941 0.7054459056179949
outer loop
vertex 0 -0.4799985333333334 -0.19999773333333337
vertex -0.039018133333333344 -0.4799985333333334 -0.19615353333333338
vertex -0.04292193333333334 -0.5000042666666668 -0.2157718666666667
endloop
endfacet
facet normal 0.06954366799491686 -0.7053948108122899 0.7053948108122899
outer loop
vertex 0 -0.4799985333333334 -0.19999773333333337
vertex -0.04292193333333334 -0.5000042666666668 -0.2157718666666667
vertex 0 -0.5000042666666668 -0.2200034666666667
endloop
endfacet
facet normal -0.06949813141353736 -0.7053970547606598 0.7053970547606598
outer loop
vertex 0.039018133333333344 -0.4799985333333334 -0.19615353333333338
vertex 0 -0.4799985333333334 -0.19999773333333337
vertex 0 -0.5000042666666668 -0.2200034666666667
endloop
endfacet
facet normal -0.0695480460299909 -0.7053499691001489 0.7054392180647667
outer loop
vertex 0.039018133333333344 -0.4799985333333334 -0.19615353333333338
vertex 0 -0.5000042666666668 -0.2200034666666667
vertex 0.04292193333333334 -0.5000042666666668 -0.2157718666666667
endloop
endfacet
facet normal -0.2056469009248978 -0.7053579102091182 0.6783653666317369
outer loop
vertex 0.07653633333333335 -0.4799985333333334 -0.1847798666666667
vertex 0.039018133333333344 -0.4799985333333334 -0.19615353333333338
vertex 0.04292193333333334 -0.5000042666666668 -0.2157718666666667
endloop
endfacet
facet normal -0.20572714186231783 -0.7052918300815396 0.6784097416174053
outer loop
vertex 0.07653633333333335 -0.4799985333333334 -0.1847798666666667
vertex 0.04292193333333334 -0.5000042666666668 -0.2157718666666667
vertex 0.08419493333333335 -0.5000042666666668 -0.2032558666666667
endloop
endfacet
facet normal -0.33422384234570035 -0.7053101350777587 0.6251656073107911
outer loop
vertex 0.11111426666666668 -0.4799985333333334 -0.16629393333333337
vertex 0.07653633333333335 -0.4799985333333334 -0.1847798666666667
vertex 0.08419493333333335 -0.5000042666666668 -0.2032558666666667
endloop
endfacet
facet normal -0.3342146825989656 -0.7053170642309905 0.62516268669831
outer loop
vertex 0.11111426666666668 -0.4799985333333334 -0.16629393333333337
vertex 0.08419493333333335 -0.5000042666666668 -0.2032558666666667
vertex 0.1222296666666667 -0.5000042666666668 -0.18292233333333338
endloop
endfacet
facet normal -0.44972154515436435 -0.7053273061347478 0.5479634322148429
outer loop
vertex 0.1414208666666667 -0.4799985333333334 -0.1414208666666667
vertex 0.11111426666666668 -0.4799985333333334 -0.16629393333333337
vertex 0.1222296666666667 -0.5000042666666668 -0.18292233333333338
endloop
endfacet
facet normal -0.44966433690684493 -0.7053687939444182 0.5479569770004983
outer loop
vertex 0.1414208666666667 -0.4799985333333334 -0.1414208666666667
vertex 0.1222296666666667 -0.5000042666666668 -0.18292233333333338
vertex 0.15556593333333338 -0.5000042666666668 -0.15556593333333338
endloop
endfacet
facet normal 0.5479634322148429 -0.7053273061347478 -0.44972154515436435
outer loop
vertex -0.18292233333333338 -0.5000042666666668 0.1222296666666667
vertex -0.16629393333333337 -0.4799985333333334 0.11111426666666668
vertex -0.1414208666666667 -0.4799985333333334 0.1414208666666667
endloop
endfacet
facet normal 0.5479569770004983 -0.7053687939444181 -0.44966433690684493
outer loop
vertex -0.18292233333333338 -0.5000042666666668 0.1222296666666667
vertex -0.1414208666666667 -0.4799985333333334 0.1414208666666667
vertex -0.15556593333333338 -0.5000042666666668 0.15556593333333338
endloop
endfacet
facet normal 0.6251656073107911 -0.7053101350777587 -0.3342238423457002
outer loop
vertex -0.2032558666666667 -0.5000042666666668 0.08419493333333335
vertex -0.1847798666666667 -0.4799985333333334 0.07653633333333335
vertex -0.16629393333333337 -0.4799985333333334 0.11111426666666668
endloop
endfacet
facet normal 0.62516268669831 -0.7053170642309905 -0.3342146825989656
outer loop
vertex -0.2032558666666667 -0.5000042666666668 0.08419493333333335
vertex -0.16629393333333337 -0.4799985333333334 0.11111426666666668
vertex -0.18292233333333338 -0.5000042666666668 0.1222296666666667
endloop
endfacet
facet normal 0.6783653666317367 -0.7053579102091184 -0.2056469009248978
outer loop
vertex -0.2157718666666667 -0.5000042666666668 0.04292193333333334
vertex -0.19615353333333338 -0.4799985333333334 0.039018133333333344
vertex -0.1847798666666667 -0.4799985333333334 0.07653633333333335
endloop
endfacet
facet normal 0.6784097416174052 -0.7052918300815396 -0.2057271418623178
outer loop
vertex -0.2157718666666667 -0.5000042666666668 0.04292193333333334
vertex -0.1847798666666667 -0.4799985333333334 0.07653633333333335
vertex -0.2032558666666667 -0.5000042666666668 0.08419493333333335
endloop
endfacet
facet normal 0.7053970547606598 -0.7053970547606598 -0.06949813141353735
outer loop
vertex -0.2200034666666667 -0.5000042666666668 0
vertex -0.19999773333333337 -0.4799985333333334 0
vertex -0.19615353333333338 -0.4799985333333334 0.039018133333333344
endloop
endfacet
facet normal 0.7054392180647668 -0.7053499691001489 -0.06954804602999091
outer loop
vertex -0.2200034666666667 -0.5000042666666668 0
vertex -0.19615353333333338 -0.4799985333333334 0.039018133333333344
vertex -0.2157718666666667 -0.5000042666666668 0.04292193333333334
endloop
endfacet
facet normal 0 -1 0
outer loop
vertex -0.4799985333333334 -0.5000042666666668 0.1222296666666667
vertex -0.18292233333333338 -0.5000042666666668 0.1222296666666667
vertex -0.15556593333333338 -0.5000042666666668 0.15556593333333338
endloop
endfacet
facet normal 0 -1 0
outer loop
vertex -0.4799985333333334 -0.5000042666666668 0.1222296666666667
vertex -0.15556593333333338 -0.5000042666666668 0.15556593333333338
vertex -0.4799985333333334 -0.5000042666666668 0.4799985333333334
endloop
endfacet
facet normal 0 -1 0
outer loop
vertex -0.4799985333333334 -0.5000042666666668 0.1222296666666667
vertex -0.4799985333333334 -0.5000042666666668 0.08419493333333335
vertex -0.2032558666666667 -0.5000042666666668 0.08419493333333335
endloop
endfacet
facet normal 0 -1 0
outer loop
vertex -0.4799985333333334 -0.5000042666666668 0.1222296666666667
vertex -0.2032558666666667 -0.5000042666666668 0.08419493333333335
vertex -0.18292233333333338 -0.5000042666666668 0.1222296666666667
endloop
endfacet
facet normal 0 -1 0
outer loop
vertex -0.4799985333333334 -0.5000042666666668 0.08419493333333335
vertex -0.4799985333333334 -0.5000042666666668 0.04292193333333334
vertex -0.2157718666666667 -0.5000042666666668 0.04292193333333334
endloop
endfacet
facet normal 0 -1 0
outer loop
vertex -0.4799985333333334 -0.5000042666666668 0.08419493333333335
vertex -0.2157718666666667 -0.5000042666666668 0.04292193333333334
vertex -0.2032558666666667 -0.5000042666666668 0.08419493333333335
endloop
endfacet
facet normal 0 -1 0
outer loop
vertex -0.4799985333333334 -0.5000042666666668 0.04292193333333334
vertex -0.4799985333333334 -0.5000042666666668 0
vertex -0.2200034666666667 -0.5000042666666668 0
endloop
endfacet
facet normal 0 -1 0
outer loop
vertex -0.4799985333333334 -0.5000042666666668 0.04292193333333334
vertex -0.2200034666666667 -0.5000042666666668 0
vertex -0.2157718666666667 -0.5000042666666668 0.04292193333333334
endloop
endfacet
facet normal 0 -1 0
outer loop
vertex -0.4799985333333334 -0.5000042666666668 0
vertex -0.4799985333333334 -0.5000042666666668 -0.04292193333333334
vertex -0.2157718666666667 -0.5000042666666668 -0.04292193333333334
endloop
endfacet
facet normal 0 -1 0
outer loop
vertex -0.4799985333333334 -0.5000042666666668 0
vertex -0.2157718666666667 -0.5000042666666668 -0.04292193333333334
vertex -0.2200034666666667 -0.5000042666666668 0
endloop
endfacet
facet normal 0 -1 0
outer loop
vertex -0.4799985333333334 -0.5000042666666668 -0.04292193333333334
vertex -0.4799985333333334 -0.5000042666666668 -0.08419493333333335
vertex -0.2032558666666667 -0.5000042666666668 -0.08419493333333335
endloop
endfacet
facet normal 0 -1 0
outer loop
vertex -0.4799985333333334 -0.5000042666666668 -0.04292193333333334
vertex -0.2032558666666667 -0.5000042666666668 -0.08419493333333335
vertex -0.2157718666666667 -0.5000042666666668 -0.04292193333333334
endloop
endfacet
facet normal 0 -1 0
outer loop
vertex -0.4799985333333334 -0.5000042666666668 -0.08419493333333335
vertex -0.4799985333333334 -0.5000042666666668 -0.1222296666666667
vertex -0.18292233333333338 -0.5000042666666668 -0.1222296666666667
endloop
endfacet
facet normal 0 -1 0
outer loop
vertex -0.4799985333333334 -0.5000042666666668 -0.08419493333333335
vertex -0.18292233333333338 -0.5000042666666668 -0.1222296666666667
vertex -0.2032558666666667 -0.5000042666666668 -0.08419493333333335
endloop
endfacet
facet normal 0 -1 0
outer loop
vertex -0.4799985333333334 -0.5000042666666668 -0.1222296666666667
vertex -0.4799985333333334 -0.5000042666666668 -0.15556593333333338
vertex -0.15556593333333338 -0.5000042666666668 -0.15556593333333338
endloop
endfacet
facet normal 0 -1 0
outer loop
vertex -0.4799985333333334 -0.5000042666666668 -0.1222296666666667
vertex -0.15556593333333338 -0.5000042666666668 -0.15556593333333338
vertex -0.18292233333333338 -0.5000042666666668 -0.1222296666666667
endloop
endfacet
facet normal 0 -1 0
outer loop
vertex 0.1222296666666667 -0.5000042666666668 -0.18292233333333338
vertex 0.18292233333333338 -0.5000042666666668 -0.18292233333333338
vertex 0.15556593333333338 -0.5000042666666668 -0.15556593333333338
endloop
endfacet
facet normal 0 -1 0
outer loop
vertex -0.4799985333333334 -0.5000042666666668 -0.15556593333333338
vertex -0.4799985333333334 -0.5000042666666668 -0.18292233333333338
vertex -0.1222296666666667 -0.5000042666666668 -0.18292233333333338
endloop
endfacet
facet normal 0 -1 0
outer loop
vertex -0.4799985333333334 -0.5000042666666668 -0.15556593333333338
vertex -0.1222296666666667 -0.5000042666666668 -0.18292233333333338
vertex -0.15556593333333338 -0.5000042666666668 -0.15556593333333338
endloop
endfacet
facet normal 0 -1 0
outer loop
vertex 0.1222296666666667 -0.5000042666666668 -0.18292233333333338
vertex 0.08419493333333335 -0.5000042666666668 -0.2032558666666667
vertex 0.2032558666666667 -0.5000042666666668 -0.2032558666666667
endloop
endfacet
facet normal 0 -1 0
outer loop
vertex 0.1222296666666667 -0.5000042666666668 -0.18292233333333338
vertex 0.2032558666666667 -0.5000042666666668 -0.2032558666666667
vertex 0.18292233333333338 -0.5000042666666668 -0.18292233333333338
endloop
endfacet
facet normal 0 -1 0
outer loop
vertex -0.4799985333333334 -0.5000042666666668 -0.18292233333333338
vertex -0.4799985333333334 -0.5000042666666668 -0.2032558666666667
vertex -0.08419493333333335 -0.5000042666666668 -0.2032558666666667
endloop
endfacet
facet normal 0 -0.9999999999999999 0
outer loop
vertex -0.4799985333333334 -0.5000042666666668 -0.18292233333333338
vertex -0.08419493333333335 -0.5000042666666668 -0.2032558666666667
vertex -0.1222296666666667 -0.5000042666666668 -0.18292233333333338
endloop
endfacet
facet normal 0 -1 0
outer loop
vertex 0.08419493333333335 -0.5000042666666668 -0.2032558666666667
vertex 0.04292193333333334 -0.5000042666666668 -0.2157718666666667
vertex 0.2157718666666667 -0.5000042666666668 -0.2157718666666667
endloop
endfacet
facet normal 0 -1 0
outer loop
vertex 0.08419493333333335 -0.5000042666666668 -0.2032558666666667
vertex 0.2157718666666667 -0.5000042666666668 -0.2157718666666667
vertex 0.2032558666666667 -0.5000042666666668 -0.2032558666666667
endloop
endfacet
facet normal 0 -1 0
outer loop
vertex -0.4799985333333334 -0.5000042666666668 -0.2032558666666667
vertex -0.4799985333333334 -0.5000042666666668 -0.2157718666666667
vertex -0.04292193333333334 -0.5000042666666668 -0.2157718666666667
endloop
endfacet
facet normal 0 -1 0
outer loop
vertex -0.4799985333333334 -0.5000042666666668 -0.2032558666666667
vertex -0.04292193333333334 -0.5000042666666668 -0.2157718666666667
vertex -0.08419493333333335 -0.5000042666666668 -0.2032558666666667
endloop
endfacet
facet normal 0 -1 0
outer loop
vertex 0.04292193333333334 -0.5000042666666668 -0.2157718666666667
vertex 0 -0.5000042666666668 -0.2200034666666667
vertex 0.2200034666666667 -0.5000042666666668 -0.2200034666666667
endloop
endfacet
facet normal 0 -1 0
outer loop
vertex 0.04292193333333334 -0.5000042666666668 -0.2157718666666667
vertex 0.2200034666666667 -0.5000042666666668 -0.2200034666666667
vertex 0.2157718666666667 -0.5000042666666668 -0.2157718666666667
endloop
endfacet
facet normal 0 -1 0
outer loop
vertex -0.4799985333333334 -0.5000042666666668 -0.2157718666666667
vertex -0.4799985333333334 -0.5000042666666668 -0.2200034666666667
vertex 0 -0.5000042666666668 -0.2200034666666667
endloop
endfacet
facet normal 0 -1 0
outer loop
vertex -0.4799985333333334 -0.5000042666666668 -0.2157718666666667
vertex 0 -0.5000042666666668 -0.2200034666666667
vertex -0.04292193333333334 -0.5000042666666668 -0.2157718666666667
endloop
endfacet
facet normal 0 -1 0
outer loop
vertex -0.05200100000000001 -0.5000042666666668 -0.32400546666666674
vertex 0 -0.5000042666666668 -0.2200034666666667
vertex -0.4799985333333334 -0.5000042666666668 -0.2200034666666667
endloop
endfacet
facet normal 0 -0.9999999999999999 0
outer loop
vertex -0.05200100000000001 -0.5000042666666668 -0.32400546666666674
vertex -0.4799985333333334 -0.5000042666666668 -0.2200034666666667
vertex -0.4799985333333334 -0.5000042666666668 -0.4799985333333334
endloop
endfacet
facet normal 0 -1 0
outer loop
vertex -0.05200100000000001 -0.5000042666666668 -0.32400546666666674
vertex -0.4799985333333334 -0.5000042666666668 -0.4799985333333334
vertex 0.4799985333333334 -0.5000042666666668 -0.4799985333333334
endloop
endfacet
facet normal 0 -1 0
outer loop
vertex -0.05200100000000001 -0.5000042666666668 -0.32400546666666674
vertex 0.4799985333333334 -0.5000042666666668 -0.4799985333333334
vertex 0.2200034666666667 -0.5000042666666668 -0.2200034666666667
endloop
endfacet
facet normal 0 -1 0
outer loop
vertex -0.05200100000000001 -0.5000042666666668 -0.32400546666666674
vertex 0.2200034666666667 -0.5000042666666668 -0.2200034666666667
vertex 0 -0.5000042666666668 -0.2200034666666667
endloop
endfacet
facet normal 0.7729969093229104 0 -0.6344097872646891
outer loop
vertex -0.1414208666666667 0.4799985333333334 0.1414208666666667
vertex -0.1414208666666667 -0.4799985333333334 0.1414208666666667
vertex -0.16629393333333337 -0.4799985333333334 0.11111426666666668
endloop
endfacet
facet normal 0.7729969093229104 0 -0.6344097872646891
outer loop
vertex -0.1414208666666667 0.4799985333333334 0.1414208666666667
vertex -0.16629393333333337 -0.4799985333333334 0.11111426666666668
vertex -0.16629393333333337 0.4799985333333334 0.11111426666666668
endloop
endfacet
facet normal 0.8818826356837444 0 -0.4714689988530448
outer loop
vertex -0.16629393333333337 0.4799985333333334 0.11111426666666668
vertex -0.16629393333333337 -0.4799985333333334 0.11111426666666668
vertex -0.1847798666666667 -0.4799985333333334 0.07653633333333335
endloop
endfacet
facet normal 0.8818826356837444 0 -0.4714689988530448
outer loop
vertex -0.16629393333333337 0.4799985333333334 0.11111426666666668
vertex -0.1847798666666667 -0.4799985333333334 0.07653633333333335
vertex -0.1847798666666667 0.4799985333333334 0.07653633333333335
endloop
endfacet
facet normal 0.9569924338988337 0 -0.2901128771019764
outer loop
vertex -0.1847798666666667 0.4799985333333334 0.07653633333333335
vertex -0.1847798666666667 -0.4799985333333334 0.07653633333333335
vertex -0.19615353333333338 -0.4799985333333334 0.039018133333333344
endloop
endfacet
facet normal 0.9569924338988337 0 -0.2901128771019764
outer loop
vertex -0.1847798666666667 0.4799985333333334 0.07653633333333335
vertex -0.19615353333333338 -0.4799985333333334 0.039018133333333344
vertex -0.19615353333333338 0.4799985333333334 0.039018133333333344
endloop
endfacet
facet normal 0.9951816179971834 0 -0.09804869810715607
outer loop
vertex -0.19615353333333338 0.4799985333333334 0.039018133333333344
vertex -0.19615353333333338 -0.4799985333333334 0.039018133333333344
vertex -0.19999773333333337 -0.4799985333333334 0
endloop
endfacet
facet normal 0.9951816179971834 0 -0.09804869810715607
outer loop
vertex -0.19615353333333338 0.4799985333333334 0.039018133333333344
vertex -0.19999773333333337 -0.4799985333333334 0
vertex -0.19999773333333337 0.4799985333333334 0
endloop
endfacet
facet normal 0.9951816179971834 0 0.09804869810715607
outer loop
vertex -0.19999773333333337 0.4799985333333334 0
vertex -0.19999773333333337 -0.4799985333333334 0
vertex -0.19615353333333338 -0.4799985333333334 -0.039018133333333344
endloop
endfacet
facet normal 0.9951816179971834 0 0.09804869810715607
outer loop
vertex -0.19999773333333337 0.4799985333333334 0
vertex -0.19615353333333338 -0.4799985333333334 -0.039018133333333344
vertex -0.19615353333333338 0.4799985333333334 -0.039018133333333344
endloop
endfacet
facet normal 0.9569924338988337 0 0.2901128771019764
outer loop
vertex -0.19615353333333338 0.4799985333333334 -0.039018133333333344
vertex -0.19615353333333338 -0.4799985333333334 -0.039018133333333344
vertex -0.1847798666666667 -0.4799985333333334 -0.07653633333333335
endloop
endfacet
facet normal 0.9569924338988337 0 0.2901128771019764
outer loop
vertex -0.19615353333333338 0.4799985333333334 -0.039018133333333344
vertex -0.1847798666666667 -0.4799985333333334 -0.07653633333333335
vertex -0.1847798666666667 0.4799985333333334 -0.07653633333333335
endloop
endfacet
facet normal 0.8818826356837444 0 0.4714689988530448
outer loop
vertex -0.1847798666666667 0.4799985333333334 -0.07653633333333335
vertex -0.1847798666666667 -0.4799985333333334 -0.07653633333333335
vertex -0.16629393333333337 -0.4799985333333334 -0.11111426666666668
endloop
endfacet
facet normal 0.8818826356837444 0 0.4714689988530448
outer loop
vertex -0.1847798666666667 0.4799985333333334 -0.07653633333333335
vertex -0.16629393333333337 -0.4799985333333334 -0.11111426666666668
vertex -0.16629393333333337 0.4799985333333334 -0.11111426666666668
endloop
endfacet
facet normal 0.7729969093229104 0 0.6344097872646891
outer loop
vertex -0.16629393333333337 0.4799985333333334 -0.11111426666666668
vertex -0.16629393333333337 -0.4799985333333334 -0.11111426666666668
vertex -0.1414208666666667 -0.4799985333333334 -0.1414208666666667
endloop
endfacet
facet normal 0.7729969093229104 0 0.6344097872646891
outer loop
vertex -0.16629393333333337 0.4799985333333334 -0.11111426666666668
vertex -0.1414208666666667 -0.4799985333333334 -0.1414208666666667
vertex -0.1414208666666667 0.4799985333333334 -0.1414208666666667
endloop
endfacet
facet normal 0.6344097872646891 0 0.7729969093229104
outer loop
vertex -0.1414208666666667 0.4799985333333334 -0.1414208666666667
vertex -0.1414208666666667 -0.4799985333333334 -0.1414208666666667
vertex -0.11111426666666668 -0.4799985333333334 -0.16629393333333337
endloop
endfacet
facet normal 0.6344097872646891 0 0.7729969093229104
outer loop
vertex -0.1414208666666667 0.4799985333333334 -0.1414208666666667
vertex -0.11111426666666668 -0.4799985333333334 -0.16629393333333337
vertex -0.11111426666666668 0.4799985333333334 -0.16629393333333337
endloop
endfacet
facet normal 0.4714689988530448 0 0.8818826356837444
outer loop
vertex -0.11111426666666668 0.4799985333333334 -0.16629393333333337
vertex -0.11111426666666668 -0.4799985333333334 -0.16629393333333337
vertex -0.07653633333333335 -0.4799985333333334 -0.1847798666666667
endloop
endfacet
facet normal 0.4714689988530448 0 0.8818826356837444
outer loop
vertex -0.11111426666666668 0.4799985333333334 -0.16629393333333337
vertex -0.07653633333333335 -0.4799985333333334 -0.1847798666666667
vertex -0.07653633333333335 0.4799985333333334 -0.1847798666666667
endloop
endfacet
facet normal 0.2901128771019764 0 0.9569924338988337
outer loop
vertex -0.07653633333333335 0.4799985333333334 -0.1847798666666667
vertex -0.07653633333333335 -0.4799985333333334 -0.1847798666666667
vertex -0.039018133333333344 -0.4799985333333334 -0.19615353333333338
endloop
endfacet
facet normal 0.2901128771019764 0 0.9569924338988337
outer loop
vertex -0.07653633333333335 0.4799985333333334 -0.1847798666666667
vertex -0.039018133333333344 -0.4799985333333334 -0.19615353333333338
vertex -0.039018133333333344 0.4799985333333334 -0.19615353333333338
endloop
endfacet
facet normal 0.09804869810715607 0 0.9951816179971834
outer loop
vertex -0.039018133333333344 0.4799985333333334 -0.19615353333333338
vertex -0.039018133333333344 -0.4799985333333334 -0.19615353333333338
vertex 0 -0.4799985333333334 -0.19999773333333337
endloop
endfacet
facet normal 0.09804869810715607 0 0.9951816179971834
outer loop
vertex -0.039018133333333344 0.4799985333333334 -0.19615353333333338
vertex 0 -0.4799985333333334 -0.19999773333333337
vertex 0 0.4799985333333334 -0.19999773333333337
endloop
endfacet
facet normal -0.09804869810715607 0 0.9951816179971834
outer loop
vertex 0 0.4799985333333334 -0.19999773333333337
vertex 0 -0.4799985333333334 -0.19999773333333337
vertex 0.039018133333333344 -0.4799985333333334 -0.19615353333333338
endloop
endfacet
facet normal -0.09804869810715607 0 0.9951816179971834
outer loop
vertex 0 0.4799985333333334 -0.19999773333333337
vertex 0.039018133333333344 -0.4799985333333334 -0.19615353333333338
vertex 0.039018133333333344 0.4799985333333334 -0.19615353333333338
endloop
endfacet
facet normal -0.2901128771019764 0 0.9569924338988337
outer loop
vertex 0.039018133333333344 0.4799985333333334 -0.19615353333333338
vertex 0.039018133333333344 -0.4799985333333334 -0.19615353333333338
vertex 0.07653633333333335 -0.4799985333333334 -0.1847798666666667
endloop
endfacet
facet normal -0.2901128771019764 0 0.9569924338988337
outer loop
vertex 0.039018133333333344 0.4799985333333334 -0.19615353333333338
vertex 0.07653633333333335 -0.4799985333333334 -0.1847798666666667
vertex 0.07653633333333335 0.4799985333333334 -0.1847798666666667
endloop
endfacet
facet normal -0.4714689988530448 0 0.8818826356837444
outer loop
vertex 0.07653633333333335 0.4799985333333334 -0.1847798666666667
vertex 0.07653633333333335 -0.4799985333333334 -0.1847798666666667
vertex 0.11111426666666668 -0.4799985333333334 -0.16629393333333337
endloop
endfacet
facet normal -0.4714689988530448 0 0.8818826356837444
outer loop
vertex 0.07653633333333335 0.4799985333333334 -0.1847798666666667
vertex 0.11111426666666668 -0.4799985333333334 -0.16629393333333337
vertex 0.11111426666666668 0.4799985333333334 -0.16629393333333337
endloop
endfacet
facet normal -0.6344097872646891 0 0.7729969093229104
outer loop
vertex 0.11111426666666668 0.4799985333333334 -0.16629393333333337
vertex 0.11111426666666668 -0.4799985333333334 -0.16629393333333337
vertex 0.1414208666666667 -0.4799985333333334 -0.1414208666666667
endloop
endfacet
facet normal -0.6344097872646891 0 0.7729969093229104
outer loop
vertex 0.11111426666666668 0.4799985333333334 -0.16629393333333337
vertex 0.1414208666666667 -0.4799985333333334 -0.1414208666666667
vertex 0.1414208666666667 0.4799985333333334 -0.1414208666666667
endloop
endfacet
endsolid JSCAD
