solid JSCAD
facet normal 0.7071067811865476 0.7071067811865476 0
outer loop
vertex 0.48333333333333334 0.4966666666666667 -0.18556666666666669
vertex 0.5 0.48000000000000004 -0.48000000000000004
vertex 0.48000000000000004 0.5 -0.48000000000000004
endloop
endfacet
facet normal 0.7071067811865476 0.7071067811865476 0
outer loop
vertex 0.48333333333333334 0.4966666666666667 -0.18556666666666669
vertex 0.48000000000000004 0.5 -0.48000000000000004
vertex 0.48000000000000004 0.5 -0.22
endloop
endfacet
facet normal 0.7071067811865475 0.7071067811865475 0
outer loop
vertex 0.48333333333333334 0.4966666666666667 -0.18556666666666669
vertex 0.48000000000000004 0.5 -0.22
vertex 0.48000000000000004 0.5 -0.21577500000000002
endloop
endfacet
facet normal 0.7071067811865476 0.7071067811865476 0
outer loop
vertex 0.48333333333333334 0.4966666666666667 -0.18556666666666669
vertex 0.48000000000000004 0.5 -0.21577500000000002
vertex 0.48000000000000004 0.5 -0.20325000000000001
endloop
endfacet
facet normal 0.7071067811865476 0.7071067811865476 0
outer loop
vertex 0.48333333333333334 0.4966666666666667 -0.18556666666666669
vertex 0.48000000000000004 0.5 -0.20325000000000001
vertex 0.48000000000000004 0.5 -0.182925
endloop
endfacet
facet normal 0.7071067811865476 0.7071067811865476 0
outer loop
vertex 0.48333333333333334 0.4966666666666667 -0.18556666666666669
vertex 0.48000000000000004 0.5 -0.182925
vertex 0.48000000000000004 0.5 -0.1555666666666667
endloop
endfacet
facet normal 0.7071067811865476 0.7071067811865476 0
outer loop
vertex 0.48333333333333334 0.4966666666666667 -0.18556666666666669
vertex 0.48000000000000004 0.5 -0.1555666666666667
vertex 0.48000000000000004 0.5 -0.122225
endloop
endfacet
facet normal 0.7071067811865476 0.7071067811865476 0
outer loop
vertex 0.48333333333333334 0.4966666666666667 -0.18556666666666669
vertex 0.48000000000000004 0.5 -0.122225
vertex 0.48000000000000004 0.5 -0.08419166666666666
endloop
endfacet
facet normal 0.7071067811865476 0.7071067811865476 0
outer loop
vertex 0.48333333333333334 0.4966666666666667 -0.18556666666666669
vertex 0.48000000000000004 0.5 -0.08419166666666666
vertex 0.48000000000000004 0.5 -0.042916666666666665
endloop
endfacet
facet normal 0.7071067811865476 0.7071067811865476 0
outer loop
vertex 0.48333333333333334 0.4966666666666667 -0.18556666666666669
vertex 0.48000000000000004 0.5 -0.042916666666666665
vertex 0.48000000000000004 0.5 -0.02
endloop
endfacet
facet normal 0.7071067811865475 0.7071067811865475 0
outer loop
vertex 0.48333333333333334 0.4966666666666667 -0.18556666666666669
vertex 0.48000000000000004 0.5 -0.02
vertex 0.5 0.48000000000000004 -0.02
endloop
endfacet
facet normal 0.7071067811865475 0.7071067811865475 0
outer loop
vertex 0.48333333333333334 0.4966666666666667 -0.18556666666666669
vertex 0.5 0.48000000000000004 -0.02
vertex 0.5 0.48000000000000004 -0.48000000000000004
endloop
endfacet
facet normal -0.7071067811865476 0.7071067811865476 0
outer loop
vertex -0.48333333333333334 0.4966666666666667 -0.18556666666666669
vertex -0.48000000000000004 0.5 -0.042916666666666665
vertex -0.48000000000000004 0.5 -0.08419166666666666
endloop
endfacet
facet normal -0.7071067811865476 0.7071067811865476 0
outer loop
vertex -0.48333333333333334 0.4966666666666667 -0.18556666666666669
vertex -0.48000000000000004 0.5 -0.08419166666666666
vertex -0.48000000000000004 0.5 -0.122225
endloop
endfacet
facet normal -0.7071067811865476 0.7071067811865476 0
outer loop
vertex -0.48333333333333334 0.4966666666666667 -0.18556666666666669
vertex -0.48000000000000004 0.5 -0.122225
vertex -0.48000000000000004 0.5 -0.1555666666666667
endloop
endfacet
facet normal -0.7071067811865476 0.7071067811865476 0
outer loop
vertex -0.48333333333333334 0.4966666666666667 -0.18556666666666669
vertex -0.48000000000000004 0.5 -0.1555666666666667
vertex -0.48000000000000004 0.5 -0.182925
endloop
endfacet
facet normal -0.7071067811865476 0.7071067811865476 0
outer loop
vertex -0.48333333333333334 0.4966666666666667 -0.18556666666666669
vertex -0.48000000000000004 0.5 -0.182925
vertex -0.48000000000000004 0.5 -0.20325000000000001
endloop
endfacet
facet normal -0.7071067811865476 0.7071067811865476 0
outer loop
vertex -0.48333333333333334 0.4966666666666667 -0.18556666666666669
vertex -0.48000000000000004 0.5 -0.20325000000000001
vertex -0.48000000000000004 0.5 -0.21577500000000002
endloop
endfacet
facet normal -0.7071067811865475 0.7071067811865475 0
outer loop
vertex -0.48333333333333334 0.4966666666666667 -0.18556666666666669
vertex -0.48000000000000004 0.5 -0.21577500000000002
vertex -0.48000000000000004 0.5 -0.22
endloop
endfacet
facet normal -0.7071067811865476 0.7071067811865476 0
outer loop
vertex -0.48333333333333334 0.4966666666666667 -0.18556666666666669
vertex -0.48000000000000004 0.5 -0.22
vertex -0.48000000000000004 0.5 -0.48000000000000004
endloop
endfacet
facet normal -0.7071067811865476 0.7071067811865476 0
outer loop
vertex -0.48333333333333334 0.4966666666666667 -0.18556666666666669
vertex -0.48000000000000004 0.5 -0.48000000000000004
vertex -0.5 0.48000000000000004 -0.48000000000000004
endloop
endfacet
facet normal -0.7071067811865475 0.7071067811865475 0
outer loop
vertex -0.48333333333333334 0.4966666666666667 -0.18556666666666669
vertex -0.5 0.48000000000000004 -0.48000000000000004
vertex -0.5 0.48000000000000004 -0.02
endloop
endfacet
facet normal -0.7071067811865475 0.7071067811865475 0
outer loop
vertex -0.48333333333333334 0.4966666666666667 -0.18556666666666669
vertex -0.5 0.48000000000000004 -0.02
vertex -0.48000000000000004 0.5 -0.02
endloop
endfacet
facet normal -0.7071067811865476 0.7071067811865476 0
outer loop
vertex -0.48333333333333334 0.4966666666666667 -0.18556666666666669
vertex -0.48000000000000004 0.5 -0.02
vertex -0.48000000000000004 0.5 -0.042916666666666665
endloop
endfacet
facet normal -0.9999999999999999 0 0
outer loop
vertex -0.5 0.48000000000000004 -0.48000000000000004
vertex -0.5 -0.48000000000000004 -0.48000000000000004
vertex -0.5 -0.48000000000000004 -0.02
endloop
endfacet
facet normal -0.9999999999999999 0 0
outer loop
vertex -0.5 0.48000000000000004 -0.48000000000000004
vertex -0.5 -0.48000000000000004 -0.02
vertex -0.5 0.48000000000000004 -0.02
endloop
endfacet
facet normal -0.7071067811865476 -0.7071067811865476 0
outer loop
vertex -0.48333333333333334 -0.4966666666666667 -0.18556666666666669
vertex -0.5 -0.48000000000000004 -0.48000000000000004
vertex -0.48000000000000004 -0.5 -0.48000000000000004
endloop
endfacet
facet normal -0.7071067811865476 -0.7071067811865476 0
outer loop
vertex -0.48333333333333334 -0.4966666666666667 -0.18556666666666669
vertex -0.48000000000000004 -0.5 -0.48000000000000004
vertex -0.48000000000000004 -0.5 -0.22
endloop
endfacet
facet normal -0.7071067811865475 -0.7071067811865475 0
outer loop
vertex -0.48333333333333334 -0.4966666666666667 -0.18556666666666669
vertex -0.48000000000000004 -0.5 -0.22
vertex -0.48000000000000004 -0.5 -0.21577500000000002
endloop
endfacet
facet normal -0.7071067811865476 -0.7071067811865476 0
outer loop
vertex -0.48333333333333334 -0.4966666666666667 -0.18556666666666669
vertex -0.48000000000000004 -0.5 -0.21577500000000002
vertex -0.48000000000000004 -0.5 -0.20325000000000001
endloop
endfacet
facet normal -0.7071067811865476 -0.7071067811865476 0
outer loop
vertex -0.48333333333333334 -0.4966666666666667 -0.18556666666666669
vertex -0.48000000000000004 -0.5 -0.20325000000000001
vertex -0.48000000000000004 -0.5 -0.182925
endloop
endfacet
facet normal -0.7071067811865476 -0.7071067811865476 0
outer loop
vertex -0.48333333333333334 -0.4966666666666667 -0.18556666666666669
vertex -0.48000000000000004 -0.5 -0.182925
vertex -0.48000000000000004 -0.5 -0.1555666666666667
endloop
endfacet
facet normal -0.7071067811865476 -0.7071067811865476 0
outer loop
vertex -0.48333333333333334 -0.4966666666666667 -0.18556666666666669
vertex -0.48000000000000004 -0.5 -0.1555666666666667
vertex -0.48000000000000004 -0.5 -0.122225
endloop
endfacet
facet normal -0.7071067811865476 -0.7071067811865476 0
outer loop
vertex -0.48333333333333334 -0.4966666666666667 -0.18556666666666669
vertex -0.48000000000000004 -0.5 -0.122225
vertex -0.48000000000000004 -0.5 -0.08419166666666666
endloop
endfacet
facet normal -0.7071067811865476 -0.7071067811865476 0
outer loop
vertex -0.48333333333333334 -0.4966666666666667 -0.18556666666666669
vertex -0.48000000000000004 -0.5 -0.08419166666666666
vertex -0.48000000000000004 -0.5 -0.042916666666666665
endloop
endfacet
facet normal -0.7071067811865476 -0.7071067811865476 0
outer loop
vertex -0.48333333333333334 -0.4966666666666667 -0.18556666666666669
vertex -0.48000000000000004 -0.5 -0.042916666666666665
vertex -0.48000000000000004 -0.5 -0.02
endloop
endfacet
facet normal -0.7071067811865475 -0.7071067811865475 0
outer loop
vertex -0.48333333333333334 -0.4966666666666667 -0.18556666666666669
vertex -0.48000000000000004 -0.5 -0.02
vertex -0.5 -0.48000000000000004 -0.02
endloop
endfacet
facet normal -0.7071067811865475 -0.7071067811865475 0
outer loop
vertex -0.48333333333333334 -0.4966666666666667 -0.18556666666666669
vertex -0.5 -0.48000000000000004 -0.02
vertex -0.5 -0.48000000000000004 -0.48000000000000004
endloop
endfacet
facet normal 0.7071067811865476 -0.7071067811865476 0
outer loop
vertex 0.48333333333333334 -0.4966666666666667 -0.18556666666666669
vertex 0.48000000000000004 -0.5 -0.042916666666666665
vertex 0.48000000000000004 -0.5 -0.08419166666666666
endloop
endfacet
facet normal 0.7071067811865476 -0.7071067811865476 0
outer loop
vertex 0.48333333333333334 -0.4966666666666667 -0.18556666666666669
vertex 0.48000000000000004 -0.5 -0.08419166666666666
vertex 0.48000000000000004 -0.5 -0.122225
endloop
endfacet
facet normal 0.7071067811865476 -0.7071067811865476 0
outer loop
vertex 0.48333333333333334 -0.4966666666666667 -0.18556666666666669
vertex 0.48000000000000004 -0.5 -0.122225
vertex 0.48000000000000004 -0.5 -0.1555666666666667
endloop
endfacet
facet normal 0.7071067811865476 -0.7071067811865476 0
outer loop
vertex 0.48333333333333334 -0.4966666666666667 -0.18556666666666669
vertex 0.48000000000000004 -0.5 -0.1555666666666667
vertex 0.48000000000000004 -0.5 -0.182925
endloop
endfacet
facet normal 0.7071067811865476 -0.7071067811865476 0
outer loop
vertex 0.48333333333333334 -0.4966666666666667 -0.18556666666666669
vertex 0.48000000000000004 -0.5 -0.182925
vertex 0.48000000000000004 -0.5 -0.20325000000000001
endloop
endfacet
facet normal 0.7071067811865476 -0.7071067811865476 0
outer loop
vertex 0.48333333333333334 -0.4966666666666667 -0.18556666666666669
vertex 0.48000000000000004 -0.5 -0.20325000000000001
vertex 0.48000000000000004 -0.5 -0.21577500000000002
endloop
endfacet
facet normal 0.7071067811865475 -0.7071067811865475 0
outer loop
vertex 0.48333333333333334 -0.4966666666666667 -0.18556666666666669
vertex 0.48000000000000004 -0.5 -0.21577500000000002
vertex 0.48000000000000004 -0.5 -0.22
endloop
endfacet
facet normal 0.7071067811865476 -0.7071067811865476 0
outer loop
vertex 0.48333333333333334 -0.4966666666666667 -0.18556666666666669
vertex 0.48000000000000004 -0.5 -0.22
vertex 0.48000000000000004 -0.5 -0.48000000000000004
endloop
endfacet
facet normal 0.7071067811865476 -0.7071067811865476 0
outer loop
vertex 0.48333333333333334 -0.4966666666666667 -0.18556666666666669
vertex 0.48000000000000004 -0.5 -0.48000000000000004
vertex 0.5 -0.48000000000000004 -0.48000000000000004
endloop
endfacet
facet normal 0.7071067811865475 -0.7071067811865475 0
outer loop
vertex 0.48333333333333334 -0.4966666666666667 -0.18556666666666669
vertex 0.5 -0.48000000000000004 -0.48000000000000004
vertex 0.5 -0.48000000000000004 -0.02
endloop
endfacet
facet normal 0.7071067811865475 -0.7071067811865475 0
outer loop
vertex 0.48333333333333334 -0.4966666666666667 -0.18556666666666669
vertex 0.5 -0.48000000000000004 -0.02
vertex 0.48000000000000004 -0.5 -0.02
endloop
endfacet
facet normal 0.7071067811865476 -0.7071067811865476 0
outer loop
vertex 0.48333333333333334 -0.4966666666666667 -0.18556666666666669
vertex 0.48000000000000004 -0.5 -0.02
vertex 0.48000000000000004 -0.5 -0.042916666666666665
endloop
endfacet
facet normal 0.9999999999999999 0 0
outer loop
vertex 0.5 -0.48000000000000004 -0.48000000000000004
vertex 0.5 0.48000000000000004 -0.48000000000000004
vertex 0.5 0.48000000000000004 -0.02
endloop
endfacet
facet normal 0.9999999999999999 0 0
outer loop
vertex 0.5 -0.48000000000000004 -0.48000000000000004
vertex 0.5 0.48000000000000004 -0.02
vertex 0.5 -0.48000000000000004 -0.02
endloop
endfacet
facet normal 0.5773502691896262 0.5773502691896262 0.5773502691896251
outer loop
vertex 0.5 0.48000000000000004 -0.02
vertex 0.48000000000000004 0.5 -0.02
vertex 0.48000000000000004 0.48000000000000004 0
endloop
endfacet
facet normal -0.5773502691896262 0.5773502691896262 0.5773502691896251
outer loop
vertex -0.48000000000000004 0.5 -0.02
vertex -0.5 0.48000000000000004 -0.02
vertex -0.48000000000000004 0.48000000000000004 0
endloop
endfacet
facet normal -0.5773502691896262 -0.5773502691896262 0.5773502691896251
outer loop
vertex -0.5 -0.48000000000000004 -0.02
vertex -0.48000000000000004 -0.5 -0.02
vertex -0.48000000000000004 -0.48000000000000004 0
endloop
endfacet
facet normal 0.5773502691896262 -0.5773502691896262 0.5773502691896251
outer loop
vertex 0.48000000000000004 -0.5 -0.02
vertex 0.5 -0.48000000000000004 -0.02
vertex 0.48000000000000004 -0.48000000000000004 0
endloop
endfacet
facet normal -0.7071067811865483 0 0.7071067811865469
outer loop
vertex -0.5 0.48000000000000004 -0.02
vertex -0.5 -0.48000000000000004 -0.02
vertex -0.48000000000000004 -0.48000000000000004 0
endloop
endfacet
facet normal -0.7071067811865483 0 0.7071067811865469
outer loop
vertex -0.5 0.48000000000000004 -0.02
vertex -0.48000000000000004 -0.48000000000000004 0
vertex -0.48000000000000004 0.48000000000000004 0
endloop
endfacet
facet normal 0.7071067811865483 0 0.7071067811865469
outer loop
vertex 0.5 -0.48000000000000004 -0.02
vertex 0.5 0.48000000000000004 -0.02
vertex 0.48000000000000004 0.48000000000000004 0
endloop
endfacet
facet normal 0.7071067811865483 0 0.7071067811865469
outer loop
vertex 0.5 -0.48000000000000004 -0.02
vertex 0.48000000000000004 0.48000000000000004 0
vertex 0.48000000000000004 -0.48000000000000004 0
endloop
endfacet
facet normal 0.5773502691896257 -0.5773502691896257 -0.5773502691896257
outer loop
vertex 0.5 -0.48000000000000004 -0.48000000000000004
vertex 0.48000000000000004 -0.5 -0.48000000000000004
vertex 0.48000000000000004 -0.48000000000000004 -0.5
endloop
endfacet
facet normal -0.5773502691896257 -0.5773502691896257 -0.5773502691896257
outer loop
vertex -0.48000000000000004 -0.5 -0.48000000000000004
vertex -0.5 -0.48000000000000004 -0.48000000000000004
vertex -0.48000000000000004 -0.48000000000000004 -0.5
endloop
endfacet
facet normal -0.5773502691896257 0.5773502691896257 -0.5773502691896257
outer loop
vertex -0.5 0.48000000000000004 -0.48000000000000004
vertex -0.48000000000000004 0.5 -0.48000000000000004
vertex -0.48000000000000004 0.48000000000000004 -0.5
endloop
endfacet
facet normal 0.5773502691896257 0.5773502691896257 -0.5773502691896257
outer loop
vertex 0.48000000000000004 0.5 -0.48000000000000004
vertex 0.5 0.48000000000000004 -0.48000000000000004
vertex 0.48000000000000004 0.48000000000000004 -0.5
endloop
endfacet
facet normal 0 -0.7071067811865476 -0.7071067811865476
outer loop
vertex 0.48000000000000004 -0.5 -0.48000000000000004
vertex -0.48000000000000004 -0.5 -0.48000000000000004
vertex -0.48000000000000004 -0.48000000000000004 -0.5
endloop
endfacet
facet normal 0 -0.7071067811865476 -0.7071067811865476
outer loop
vertex 0.48000000000000004 -0.5 -0.48000000000000004
vertex -0.48000000000000004 -0.48000000000000004 -0.5
vertex 0.48000000000000004 -0.48000000000000004 -0.5
endloop
endfacet
facet normal -0.7071067811865476 0 -0.7071067811865476
outer loop
vertex -0.5 -0.48000000000000004 -0.48000000000000004
vertex -0.5 0.48000000000000004 -0.48000000000000004
vertex -0.48000000000000004 0.48000000000000004 -0.5
endloop
endfacet
facet normal -0.7071067811865476 0 -0.7071067811865476
outer loop
vertex -0.5 -0.48000000000000004 -0.48000000000000004
vertex -0.48000000000000004 0.48000000000000004 -0.5
vertex -0.48000000000000004 -0.48000000000000004 -0.5
endloop
endfacet
facet normal 0 0.7071067811865476 -0.7071067811865476
outer loop
vertex -0.48000000000000004 0.5 -0.48000000000000004
vertex 0.48000000000000004 0.5 -0.48000000000000004
vertex 0.48000000000000004 0.48000000000000004 -0.5
endloop
endfacet
facet normal 0 0.7071067811865476 -0.7071067811865476
outer loop
vertex -0.48000000000000004 0.5 -0.48000000000000004
vertex 0.48000000000000004 0.48000000000000004 -0.5
vertex -0.48000000000000004 0.48000000000000004 -0.5
endloop
endfacet
facet normal 0.7071067811865476 0 -0.7071067811865476
outer loop
vertex 0.5 0.48000000000000004 -0.48000000000000004
vertex 0.5 -0.48000000000000004 -0.48000000000000004
vertex 0.48000000000000004 -0.48000000000000004 -0.5
endloop
endfacet
facet normal 0.7071067811865476 0 -0.7071067811865476
outer loop
vertex 0.5 0.48000000000000004 -0.48000000000000004
vertex 0.48000000000000004 -0.48000000000000004 -0.5
vertex 0.48000000000000004 0.48000000000000004 -0.5
endloop
endfacet
facet normal 0 0 -1
outer loop
vertex 0.48000000000000004 -0.48000000000000004 -0.5
vertex -0.48000000000000004 -0.48000000000000004 -0.5
vertex -0.48000000000000004 0.48000000000000004 -0.5
endloop
endfacet
facet normal 0 0 -1
outer loop
vertex 0.48000000000000004 -0.48000000000000004 -0.5
vertex -0.48000000000000004 0.48000000000000004 -0.5
vertex 0.48000000000000004 0.48000000000000004 -0.5
endloop
endfacet
facet normal 0 0 1
outer loop
vertex 0.2 0.48000000000000004 0
vertex 0.2 -0.48000000000000004 0
vertex 0.48000000000000004 -0.48000000000000004 0
endloop
endfacet
facet normal 0 0 1
outer loop
vertex 0.2 0.48000000000000004 0
vertex 0.48000000000000004 -0.48000000000000004 0
vertex 0.48000000000000004 0.48000000000000004 0
endloop
endfacet
facet normal 0 0 1
outer loop
vertex -0.48000000000000004 0.48000000000000004 0
vertex -0.48000000000000004 -0.48000000000000004 0
vertex -0.2 -0.48000000000000004 0
endloop
endfacet
facet normal 0 0 1
outer loop
vertex -0.48000000000000004 0.48000000000000004 0
vertex -0.2 -0.48000000000000004 0
vertex -0.2 0.48000000000000004 0
endloop
endfacet
facet normal 0 0.7071067811865482 0.707106781186547
outer loop
vertex 0.48000000000000004 0.5 -0.02
vertex 0.21803333333333336 0.5 -0.02
vertex 0.2 0.48000000000000004 0
endloop
endfacet
facet normal 0 0.7071067811865482 0.7071067811865468
outer loop
vertex 0.48000000000000004 0.5 -0.02
vertex 0.2 0.48000000000000004 0
vertex 0.48000000000000004 0.48000000000000004 0
endloop
endfacet
facet normal 0 0.7071067811865482 0.707106781186547
outer loop
vertex -0.21803333333333336 0.5 -0.02
vertex -0.48000000000000004 0.5 -0.02
vertex -0.48000000000000004 0.48000000000000004 0
endloop
endfacet
facet normal 0 0.7071067811865482 0.7071067811865469
outer loop
vertex -0.21803333333333336 0.5 -0.02
vertex -0.48000000000000004 0.48000000000000004 0
vertex -0.2 0.48000000000000004 0
endloop
endfacet
facet normal 0 -0.7071067811865482 0.7071067811865468
outer loop
vertex 0.48000000000000004 -0.48000000000000004 0
vertex 0.2 -0.48000000000000004 0
vertex 0.21803333333333336 -0.5 -0.02
endloop
endfacet
facet normal 0 -0.7071067811865482 0.707106781186547
outer loop
vertex 0.48000000000000004 -0.48000000000000004 0
vertex 0.21803333333333336 -0.5 -0.02
vertex 0.48000000000000004 -0.5 -0.02
endloop
endfacet
facet normal 0 -0.7071067811865482 0.707106781186547
outer loop
vertex -0.48000000000000004 -0.48000000000000004 0
vertex -0.48000000000000004 -0.5 -0.02
vertex -0.21803333333333336 -0.5 -0.02
endloop
endfacet
facet normal 0 -0.7071067811865482 0.7071067811865468
outer loop
vertex -0.48000000000000004 -0.48000000000000004 0
vertex -0.21803333333333336 -0.5 -0.02
vertex -0.2 -0.48000000000000004 0
endloop
endfacet
facet normal -0.678286024508807 0.7053815175623617 0.2058275580126666
outer loop
vertex 0.21577500000000002 0.5 -0.042916666666666665
vertex 0.20325000000000001 0.5 -0.08419166666666666
vertex 0.18477500000000002 0.48000000000000004 -0.07653333333333334
endloop
endfacet
facet normal -0.678271711608095 0.7054028311725652 0.2058016788220029
outer loop
vertex 0.21577500000000002 0.5 -0.042916666666666665
vertex 0.18477500000000002 0.48000000000000004 -0.07653333333333334
vertex 0.19615833333333335 0.48000000000000004 -0.03901666666666667
endloop
endfacet
facet normal -0.6251156735191555 0.7054312470227894 0.33406159678203795
outer loop
vertex 0.20325000000000001 0.5 -0.08419166666666666
vertex 0.182925 0.5 -0.122225
vertex 0.16629166666666667 0.48000000000000004 -0.11111666666666667
endloop
endfacet
facet normal -0.6251296695066288 0.7053980764639262 0.3341054474616155
outer loop
vertex 0.20325000000000001 0.5 -0.08419166666666666
vertex 0.16629166666666667 0.48000000000000004 -0.11111666666666667
vertex 0.18477500000000002 0.48000000000000004 -0.07653333333333334
endloop
endfacet
facet normal -0.5479657079475825 0.7053836146925013 0.4496304471861813
outer loop
vertex 0.182925 0.5 -0.122225
vertex 0.1555666666666667 0.5 -0.1555666666666667
vertex 0.141425 0.48000000000000004 -0.141425
endloop
endfacet
facet normal -0.5479596641663416 0.7054223596869613 0.44957702443562375
outer loop
vertex 0.182925 0.5 -0.122225
vertex 0.141425 0.48000000000000004 -0.141425
vertex 0.16629166666666667 0.48000000000000004 -0.11111666666666667
endloop
endfacet
facet normal -0.44957702443562375 0.7054223596869613 0.5479596641663416
outer loop
vertex 0.122225 0.5 -0.182925
vertex 0.11111666666666667 0.48000000000000004 -0.16629166666666667
vertex 0.141425 0.48000000000000004 -0.141425
endloop
endfacet
facet normal -0.4496304471861813 0.7053836146925013 0.5479657079475825
outer loop
vertex 0.122225 0.5 -0.182925
vertex 0.141425 0.48000000000000004 -0.141425
vertex 0.1555666666666667 0.5 -0.1555666666666667
endloop
endfacet
facet normal -0.3341054474616154 0.7053980764639259 0.6251296695066286
outer loop
vertex 0.08419166666666666 0.5 -0.20325000000000001
vertex 0.07653333333333334 0.48000000000000004 -0.18477500000000002
vertex 0.11111666666666667 0.48000000000000004 -0.16629166666666667
endloop
endfacet
facet normal -0.33406159678203795 0.7054312470227894 0.6251156735191555
outer loop
vertex 0.08419166666666666 0.5 -0.20325000000000001
vertex 0.11111666666666667 0.48000000000000004 -0.16629166666666667
vertex 0.122225 0.5 -0.182925
endloop
endfacet
facet normal -0.2058016788220029 0.7054028311725652 0.678271711608095
outer loop
vertex 0.042916666666666665 0.5 -0.21577500000000002
vertex 0.03901666666666667 0.48000000000000004 -0.19615833333333335
vertex 0.07653333333333334 0.48000000000000004 -0.18477500000000002
endloop
endfacet
facet normal -0.20582755801266658 0.7053815175623616 0.678286024508807
outer loop
vertex 0.042916666666666665 0.5 -0.21577500000000002
vertex 0.07653333333333334 0.48000000000000004 -0.18477500000000002
vertex 0.08419166666666666 0.5 -0.20325000000000001
endloop
endfacet
facet normal -0.06945515121881765 0.7053991713807056 0.7053991713807046
outer loop
vertex 0 0.5 -0.22
vertex 0 0.48000000000000004 -0.2
vertex 0.03901666666666667 0.48000000000000004 -0.19615833333333335
endloop
endfacet
facet normal -0.06944315331623802 0.7054104911360576 0.7053890326994627
outer loop
vertex 0 0.5 -0.22
vertex 0.03901666666666667 0.48000000000000004 -0.19615833333333335
vertex 0.042916666666666665 0.5 -0.21577500000000002
endloop
endfacet
facet normal 0.06944315331623802 0.7054104911360576 0.7053890326994627
outer loop
vertex 0 0.5 -0.22
vertex -0.042916666666666665 0.5 -0.21577500000000002
vertex -0.03901666666666667 0.48000000000000004 -0.19615833333333335
endloop
endfacet
facet normal 0.06945515121881765 0.7053991713807056 0.7053991713807046
outer loop
vertex 0 0.5 -0.22
vertex -0.03901666666666667 0.48000000000000004 -0.19615833333333335
vertex 0 0.48000000000000004 -0.2
endloop
endfacet
facet normal 0.20582755801266658 0.7053815175623616 0.678286024508807
outer loop
vertex -0.042916666666666665 0.5 -0.21577500000000002
vertex -0.08419166666666666 0.5 -0.20325000000000001
vertex -0.07653333333333334 0.48000000000000004 -0.18477500000000002
endloop
endfacet
facet normal 0.2058016788220029 0.7054028311725652 0.678271711608095
outer loop
vertex -0.042916666666666665 0.5 -0.21577500000000002
vertex -0.07653333333333334 0.48000000000000004 -0.18477500000000002
vertex -0.03901666666666667 0.48000000000000004 -0.19615833333333335
endloop
endfacet
facet normal 0.33406159678203795 0.7054312470227894 0.6251156735191555
outer loop
vertex -0.08419166666666666 0.5 -0.20325000000000001
vertex -0.122225 0.5 -0.182925
vertex -0.11111666666666667 0.48000000000000004 -0.16629166666666667
endloop
endfacet
facet normal 0.3341054474616154 0.7053980764639259 0.6251296695066286
outer loop
vertex -0.08419166666666666 0.5 -0.20325000000000001
vertex -0.11111666666666667 0.48000000000000004 -0.16629166666666667
vertex -0.07653333333333334 0.48000000000000004 -0.18477500000000002
endloop
endfacet
facet normal 0.4496304471861813 0.7053836146925013 0.5479657079475825
outer loop
vertex -0.122225 0.5 -0.182925
vertex -0.1555666666666667 0.5 -0.1555666666666667
vertex -0.141425 0.48000000000000004 -0.141425
endloop
endfacet
facet normal 0.44957702443562375 0.7054223596869613 0.5479596641663416
outer loop
vertex -0.122225 0.5 -0.182925
vertex -0.141425 0.48000000000000004 -0.141425
vertex -0.11111666666666667 0.48000000000000004 -0.16629166666666667
endloop
endfacet
facet normal 0.5479657079475825 0.7053836146925014 0.4496304471861813
outer loop
vertex -0.141425 0.48000000000000004 -0.141425
vertex -0.1555666666666667 0.5 -0.1555666666666667
vertex -0.182925 0.5 -0.122225
endloop
endfacet
facet normal 0.5479596641663415 0.7054223596869613 0.44957702443562386
outer loop
vertex -0.141425 0.48000000000000004 -0.141425
vertex -0.182925 0.5 -0.122225
vertex -0.16629166666666667 0.48000000000000004 -0.11111666666666667
endloop
endfacet
facet normal 0.6251156735191555 0.7054312470227893 0.3340615967820379
outer loop
vertex -0.16629166666666667 0.48000000000000004 -0.11111666666666667
vertex -0.182925 0.5 -0.122225
vertex -0.20325000000000001 0.5 -0.08419166666666666
endloop
endfacet
facet normal 0.6251296695066286 0.705398076463926 0.3341054474616154
outer loop
vertex -0.16629166666666667 0.48000000000000004 -0.11111666666666667
vertex -0.20325000000000001 0.5 -0.08419166666666666
vertex -0.18477500000000002 0.48000000000000004 -0.07653333333333334
endloop
endfacet
facet normal 0.678286024508807 0.7053815175623617 0.20582755801266658
outer loop
vertex -0.18477500000000002 0.48000000000000004 -0.07653333333333334
vertex -0.20325000000000001 0.5 -0.08419166666666666
vertex -0.21577500000000002 0.5 -0.042916666666666665
endloop
endfacet
facet normal 0.678271711608095 0.7054028311725652 0.20580167882200293
outer loop
vertex -0.18477500000000002 0.48000000000000004 -0.07653333333333334
vertex -0.21577500000000002 0.5 -0.042916666666666665
vertex -0.19615833333333335 0.48000000000000004 -0.03901666666666667
endloop
endfacet
facet normal 0.7053788496323805 0.705413904823697 0.06951187936377282
outer loop
vertex -0.19615833333333335 0.48000000000000004 -0.03901666666666667
vertex -0.21577500000000002 0.5 -0.042916666666666665
vertex -0.21803333333333336 0.5 -0.02
endloop
endfacet
facet normal 0.7053539423837373 0.7054448359218077 0.0694506978724695
outer loop
vertex -0.19615833333333335 0.48000000000000004 -0.03901666666666667
vertex -0.21803333333333336 0.5 -0.02
vertex -0.2 0.48000000000000004 0
endloop
endfacet
facet normal -0.7053788496323805 0.705413904823697 0.0695118793637728
outer loop
vertex 0.21803333333333336 0.5 -0.02
vertex 0.21577500000000002 0.5 -0.042916666666666665
vertex 0.19615833333333335 0.48000000000000004 -0.03901666666666667
endloop
endfacet
facet normal -0.7053539423837373 0.7054448359218077 0.0694506978724695
outer loop
vertex 0.21803333333333336 0.5 -0.02
vertex 0.19615833333333335 0.48000000000000004 -0.03901666666666667
vertex 0.2 0.48000000000000004 0
endloop
endfacet
facet normal 0 1 0
outer loop
vertex -0.21803333333333336 0.5 -0.02
vertex -0.21577500000000002 0.5 -0.042916666666666665
vertex -0.48000000000000004 0.5 -0.042916666666666665
endloop
endfacet
facet normal 0 1 0
outer loop
vertex -0.21803333333333336 0.5 -0.02
vertex -0.48000000000000004 0.5 -0.042916666666666665
vertex -0.48000000000000004 0.5 -0.02
endloop
endfacet
facet normal 0 1 0
outer loop
vertex 0.48000000000000004 0.5 -0.02
vertex 0.48000000000000004 0.5 -0.042916666666666665
vertex 0.21577500000000002 0.5 -0.042916666666666665
endloop
endfacet
facet normal 0 1 0
outer loop
vertex 0.48000000000000004 0.5 -0.02
vertex 0.21577500000000002 0.5 -0.042916666666666665
vertex 0.21803333333333336 0.5 -0.02
endloop
endfacet
facet normal 0 1 0
outer loop
vertex -0.21577500000000002 0.5 -0.042916666666666665
vertex -0.20325000000000001 0.5 -0.08419166666666666
vertex -0.48000000000000004 0.5 -0.08419166666666666
endloop
endfacet
facet normal 0 1 0
outer loop
vertex -0.21577500000000002 0.5 -0.042916666666666665
vertex -0.48000000000000004 0.5 -0.08419166666666666
vertex -0.48000000000000004 0.5 -0.042916666666666665
endloop
endfacet
facet normal 0 1 0
outer loop
vertex 0.48000000000000004 0.5 -0.042916666666666665
vertex 0.48000000000000004 0.5 -0.08419166666666666
vertex 0.20325000000000001 0.5 -0.08419166666666666
endloop
endfacet
facet normal 0 1 0
outer loop
vertex 0.48000000000000004 0.5 -0.042916666666666665
vertex 0.20325000000000001 0.5 -0.08419166666666666
vertex 0.21577500000000002 0.5 -0.042916666666666665
endloop
endfacet
facet normal 0 1 0
outer loop
vertex -0.20325000000000001 0.5 -0.08419166666666666
vertex -0.182925 0.5 -0.122225
vertex -0.48000000000000004 0.5 -0.122225
endloop
endfacet
facet normal 0 0.9999999999999999 0
outer loop
vertex -0.20325000000000001 0.5 -0.08419166666666666
vertex -0.48000000000000004 0.5 -0.122225
vertex -0.48000000000000004 0.5 -0.08419166666666666
endloop
endfacet
facet normal 0 1 0
outer loop
vertex 0.48000000000000004 0.5 -0.08419166666666666
vertex 0.48000000000000004 0.5 -0.122225
vertex 0.182925 0.5 -0.122225
endloop
endfacet
facet normal 0 0.9999999999999999 0
outer loop
vertex 0.48000000000000004 0.5 -0.08419166666666666
vertex 0.182925 0.5 -0.122225
vertex 0.20325000000000001 0.5 -0.08419166666666666
endloop
endfacet
facet normal 0 1 0
outer loop
vertex -0.182925 0.5 -0.122225
vertex -0.1555666666666667 0.5 -0.1555666666666667
vertex -0.48000000000000004 0.5 -0.1555666666666667
endloop
endfacet
facet normal 0 1 0
outer loop
vertex -0.182925 0.5 -0.122225
vertex -0.48000000000000004 0.5 -0.1555666666666667
vertex -0.48000000000000004 0.5 -0.122225
endloop
endfacet
facet normal 0 1 0
outer loop
vertex 0.48000000000000004 0.5 -0.122225
vertex 0.48000000000000004 0.5 -0.1555666666666667
vertex 0.1555666666666667 0.5 -0.1555666666666667
endloop
endfacet
facet normal 0 1 0
outer loop
vertex 0.48000000000000004 0.5 -0.122225
vertex 0.1555666666666667 0.5 -0.1555666666666667
vertex 0.182925 0.5 -0.122225
endloop
endfacet
facet normal 0 1 0
outer loop
vertex -0.1555666666666667 0.5 -0.1555666666666667
vertex -0.122225 0.5 -0.182925
vertex -0.48000000000000004 0.5 -0.182925
endloop
endfacet
facet normal 0 1 0
outer loop
vertex -0.1555666666666667 0.5 -0.1555666666666667
vertex -0.48000000000000004 0.5 -0.182925
vertex -0.48000000000000004 0.5 -0.1555666666666667
endloop
endfacet
facet normal 0 1 0
outer loop
vertex 0.48000000000000004 0.5 -0.1555666666666667
vertex 0.48000000000000004 0.5 -0.182925
vertex 0.122225 0.5 -0.182925
endloop
endfacet
facet normal 0 1 0
outer loop
vertex 0.48000000000000004 0.5 -0.1555666666666667
vertex 0.122225 0.5 -0.182925
vertex 0.1555666666666667 0.5 -0.1555666666666667
endloop
endfacet
facet normal 0 1 0
outer loop
vertex -0.122225 0.5 -0.182925
vertex -0.08419166666666666 0.5 -0.20325000000000001
vertex -0.48000000000000004 0.5 -0.20325000000000001
endloop
endfacet
facet normal 0 1 0
outer loop
vertex -0.122225 0.5 -0.182925
vertex -0.48000000000000004 0.5 -0.20325000000000001
vertex -0.48000000000000004 0.5 -0.182925
endloop
endfacet
facet normal 0 1 0
outer loop
vertex 0.48000000000000004 0.5 -0.182925
vertex 0.48000000000000004 0.5 -0.20325000000000001
vertex 0.08419166666666666 0.5 -0.20325000000000001
endloop
endfacet
facet normal 0 1 0
outer loop
vertex 0.48000000000000004 0.5 -0.182925
vertex 0.08419166666666666 0.5 -0.20325000000000001
vertex 0.122225 0.5 -0.182925
endloop
endfacet
facet normal 0 1 0
outer loop
vertex -0.08419166666666666 0.5 -0.20325000000000001
vertex -0.042916666666666665 0.5 -0.21577500000000002
vertex -0.48000000000000004 0.5 -0.21577500000000002
endloop
endfacet
facet normal 0 1 0
outer loop
vertex -0.08419166666666666 0.5 -0.20325000000000001
vertex -0.48000000000000004 0.5 -0.21577500000000002
vertex -0.48000000000000004 0.5 -0.20325000000000001
endloop
endfacet
facet normal 0 1 0
outer loop
vertex 0.48000000000000004 0.5 -0.20325000000000001
vertex 0.48000000000000004 0.5 -0.21577500000000002
vertex 0.042916666666666665 0.5 -0.21577500000000002
endloop
endfacet
facet normal 0 1 0
outer loop
vertex 0.48000000000000004 0.5 -0.20325000000000001
vertex 0.042916666666666665 0.5 -0.21577500000000002
vertex 0.08419166666666666 0.5 -0.20325000000000001
endloop
endfacet
facet normal 0 1 0
outer loop
vertex -0.042916666666666665 0.5 -0.21577500000000002
vertex 0 0.5 -0.22
vertex -0.48000000000000004 0.5 -0.22
endloop
endfacet
facet normal 0 1 0
outer loop
vertex -0.042916666666666665 0.5 -0.21577500000000002
vertex -0.48000000000000004 0.5 -0.22
vertex -0.48000000000000004 0.5 -0.21577500000000002
endloop
endfacet
facet normal 0 1 0
outer loop
vertex 0.48000000000000004 0.5 -0.21577500000000002
vertex 0.48000000000000004 0.5 -0.22
vertex 0 0.5 -0.22
endloop
endfacet
facet normal 0 1 0
outer loop
vertex 0.48000000000000004 0.5 -0.21577500000000002
vertex 0 0.5 -0.22
vertex 0.042916666666666665 0.5 -0.21577500000000002
endloop
endfacet
facet normal 0 1 0
outer loop
vertex 0 0.5 -0.324
vertex 0 0.5 -0.22
vertex 0.48000000000000004 0.5 -0.22
endloop
endfacet
facet normal 0 1 0
outer loop
vertex 0 0.5 -0.324
vertex 0.48000000000000004 0.5 -0.22
vertex 0.48000000000000004 0.5 -0.48000000000000004
endloop
endfacet
facet normal 0 1 0
outer loop
vertex 0 0.5 -0.324
vertex 0.48000000000000004 0.5 -0.48000000000000004
vertex -0.48000000000000004 0.5 -0.48000000000000004
endloop
endfacet
facet normal 0 1 0
outer loop
vertex 0 0.5 -0.324
vertex -0.48000000000000004 0.5 -0.48000000000000004
vertex -0.48000000000000004 0.5 -0.22
endloop
endfacet
facet normal 0 1 0
outer loop
vertex 0 0.5 -0.324
vertex -0.48000000000000004 0.5 -0.22
vertex 0 0.5 -0.22
endloop
endfacet
facet normal 0.678286024508807 -0.7053815175623617 0.2058275580126666
outer loop
vertex -0.21577500000000002 -0.5 -0.042916666666666665
vertex -0.20325000000000001 -0.5 -0.08419166666666666
vertex -0.18477500000000002 -0.48000000000000004 -0.07653333333333334
endloop
endfacet
facet normal 0.678271711608095 -0.7054028311725652 0.2058016788220029
outer loop
vertex -0.21577500000000002 -0.5 -0.042916666666666665
vertex -0.18477500000000002 -0.48000000000000004 -0.07653333333333334
vertex -0.19615833333333335 -0.48000000000000004 -0.03901666666666667
endloop
endfacet
facet normal 0.6251156735191555 -0.7054312470227894 0.33406159678203795
outer loop
vertex -0.20325000000000001 -0.5 -0.08419166666666666
vertex -0.182925 -0.5 -0.122225
vertex -0.16629166666666667 -0.48000000000000004 -0.11111666666666667
endloop
endfacet
facet normal 0.6251296695066288 -0.7053980764639262 0.3341054474616155
outer loop
vertex -0.20325000000000001 -0.5 -0.08419166666666666
vertex -0.16629166666666667 -0.48000000000000004 -0.11111666666666667
vertex -0.18477500000000002 -0.48000000000000004 -0.07653333333333334
endloop
endfacet
facet normal 0.5479657079475825 -0.7053836146925013 0.4496304471861813
outer loop
vertex -0.182925 -0.5 -0.122225
vertex -0.1555666666666667 -0.5 -0.1555666666666667
vertex -0.141425 -0.48000000000000004 -0.141425
endloop
endfacet
facet normal 0.5479596641663416 -0.7054223596869613 0.44957702443562375
outer loop
vertex -0.182925 -0.5 -0.122225
vertex -0.141425 -0.48000000000000004 -0.141425
vertex -0.16629166666666667 -0.48000000000000004 -0.11111666666666667
endloop
endfacet
facet normal 0.4496304471861813 -0.7053836146925014 0.5479657079475825
outer loop
vertex -0.141425 -0.48000000000000004 -0.141425
vertex -0.1555666666666667 -0.5 -0.1555666666666667
vertex -0.122225 -0.5 -0.182925
endloop
endfacet
facet normal 0.4495770244356239 -0.7054223596869614 0.5479596641663415
outer loop
vertex -0.141425 -0.48000000000000004 -0.141425
vertex -0.122225 -0.5 -0.182925
vertex -0.11111666666666667 -0.48000000000000004 -0.16629166666666667
endloop
endfacet
facet normal 0.3340615967820379 -0.7054312470227893 0.6251156735191555
outer loop
vertex -0.11111666666666667 -0.48000000000000004 -0.16629166666666667
vertex -0.122225 -0.5 -0.182925
vertex -0.08419166666666666 -0.5 -0.20325000000000001
endloop
endfacet
facet normal 0.3341054474616154 -0.705398076463926 0.6251296695066286
outer loop
vertex -0.11111666666666667 -0.48000000000000004 -0.16629166666666667
vertex -0.08419166666666666 -0.5 -0.20325000000000001
vertex -0.07653333333333334 -0.48000000000000004 -0.18477500000000002
endloop
endfacet
facet normal 0.20582755801266658 -0.7053815175623617 0.678286024508807
outer loop
vertex -0.07653333333333334 -0.48000000000000004 -0.18477500000000002
vertex -0.08419166666666666 -0.5 -0.20325000000000001
vertex -0.042916666666666665 -0.5 -0.21577500000000002
endloop
endfacet
facet normal 0.20580167882200293 -0.7054028311725652 0.678271711608095
outer loop
vertex -0.07653333333333334 -0.48000000000000004 -0.18477500000000002
vertex -0.042916666666666665 -0.5 -0.21577500000000002
vertex -0.03901666666666667 -0.48000000000000004 -0.19615833333333335
endloop
endfacet
facet normal 0.0694539947978303 -0.7054110298683177 0.7053874265584429
outer loop
vertex 0 -0.48000000000000004 -0.2
vertex -0.03901666666666667 -0.48000000000000004 -0.19615833333333335
vertex -0.042916666666666665 -0.5 -0.21577500000000002
endloop
endfacet
facet normal 0.06944420448556599 -0.7053997102577262 0.7053997102577253
outer loop
vertex 0 -0.48000000000000004 -0.2
vertex -0.042916666666666665 -0.5 -0.21577500000000002
vertex 0 -0.5 -0.22
endloop
endfacet
facet normal -0.06945515121881765 -0.7053991713807056 0.7053991713807046
outer loop
vertex 0.03901666666666667 -0.48000000000000004 -0.19615833333333335
vertex 0 -0.48000000000000004 -0.2
vertex 0 -0.5 -0.22
endloop
endfacet
facet normal -0.069443153316238 -0.7054104911360576 0.7053890326994627
outer loop
vertex 0.03901666666666667 -0.48000000000000004 -0.19615833333333335
vertex 0 -0.5 -0.22
vertex 0.042916666666666665 -0.5 -0.21577500000000002
endloop
endfacet
facet normal -0.20580167882200293 -0.7054028311725652 0.678271711608095
outer loop
vertex 0.07653333333333334 -0.48000000000000004 -0.18477500000000002
vertex 0.03901666666666667 -0.48000000000000004 -0.19615833333333335
vertex 0.042916666666666665 -0.5 -0.21577500000000002
endloop
endfacet
facet normal -0.20582755801266658 -0.7053815175623617 0.678286024508807
outer loop
vertex 0.07653333333333334 -0.48000000000000004 -0.18477500000000002
vertex 0.042916666666666665 -0.5 -0.21577500000000002
vertex 0.08419166666666666 -0.5 -0.20325000000000001
endloop
endfacet
facet normal -0.3341054474616154 -0.705398076463926 0.6251296695066286
outer loop
vertex 0.11111666666666667 -0.48000000000000004 -0.16629166666666667
vertex 0.07653333333333334 -0.48000000000000004 -0.18477500000000002
vertex 0.08419166666666666 -0.5 -0.20325000000000001
endloop
endfacet
facet normal -0.3340615967820379 -0.7054312470227893 0.6251156735191555
outer loop
vertex 0.11111666666666667 -0.48000000000000004 -0.16629166666666667
vertex 0.08419166666666666 -0.5 -0.20325000000000001
vertex 0.122225 -0.5 -0.182925
endloop
endfacet
facet normal -0.4495770244356239 -0.7054223596869614 0.5479596641663415
outer loop
vertex 0.141425 -0.48000000000000004 -0.141425
vertex 0.11111666666666667 -0.48000000000000004 -0.16629166666666667
vertex 0.122225 -0.5 -0.182925
endloop
endfacet
facet normal -0.4496304471861813 -0.7053836146925014 0.5479657079475825
outer loop
vertex 0.141425 -0.48000000000000004 -0.141425
vertex 0.122225 -0.5 -0.182925
vertex 0.1555666666666667 -0.5 -0.1555666666666667
endloop
endfacet
facet normal -0.5479657079475825 -0.7053836146925014 0.4496304471861813
outer loop
vertex 0.141425 -0.48000000000000004 -0.141425
vertex 0.1555666666666667 -0.5 -0.1555666666666667
vertex 0.182925 -0.5 -0.122225
endloop
endfacet
facet normal -0.5479596641663415 -0.7054223596869613 0.44957702443562386
outer loop
vertex 0.141425 -0.48000000000000004 -0.141425
vertex 0.182925 -0.5 -0.122225
vertex 0.16629166666666667 -0.48000000000000004 -0.11111666666666667
endloop
endfacet
facet normal -0.6251156735191555 -0.7054312470227893 0.3340615967820379
outer loop
vertex 0.16629166666666667 -0.48000000000000004 -0.11111666666666667
vertex 0.182925 -0.5 -0.122225
vertex 0.20325000000000001 -0.5 -0.08419166666666666
endloop
endfacet
facet normal -0.6251296695066286 -0.705398076463926 0.3341054474616154
outer loop
vertex 0.16629166666666667 -0.48000000000000004 -0.11111666666666667
vertex 0.20325000000000001 -0.5 -0.08419166666666666
vertex 0.18477500000000002 -0.48000000000000004 -0.07653333333333334
endloop
endfacet
facet normal -0.678286024508807 -0.7053815175623617 0.20582755801266658
outer loop
vertex 0.18477500000000002 -0.48000000000000004 -0.07653333333333334
vertex 0.20325000000000001 -0.5 -0.08419166666666666
vertex 0.21577500000000002 -0.5 -0.042916666666666665
endloop
endfacet
facet normal -0.678271711608095 -0.7054028311725652 0.20580167882200293
outer loop
vertex 0.18477500000000002 -0.48000000000000004 -0.07653333333333334
vertex 0.21577500000000002 -0.5 -0.042916666666666665
vertex 0.19615833333333335 -0.48000000000000004 -0.03901666666666667
endloop
endfacet
facet normal -0.7053788496323805 -0.705413904823697 0.06951187936377282
outer loop
vertex 0.19615833333333335 -0.48000000000000004 -0.03901666666666667
vertex 0.21577500000000002 -0.5 -0.042916666666666665
vertex 0.21803333333333336 -0.5 -0.02
endloop
endfacet
facet normal -0.7053539423837373 -0.7054448359218077 0.0694506978724695
outer loop
vertex 0.19615833333333335 -0.48000000000000004 -0.03901666666666667
vertex 0.21803333333333336 -0.5 -0.02
vertex 0.2 -0.48000000000000004 0
endloop
endfacet
facet normal 0.7053788496323805 -0.705413904823697 0.0695118793637728
outer loop
vertex -0.21803333333333336 -0.5 -0.02
vertex -0.21577500000000002 -0.5 -0.042916666666666665
vertex -0.19615833333333335 -0.48000000000000004 -0.03901666666666667
endloop
endfacet
facet normal 0.7053539423837373 -0.7054448359218077 0.0694506978724695
outer loop
vertex -0.21803333333333336 -0.5 -0.02
vertex -0.19615833333333335 -0.48000000000000004 -0.03901666666666667
vertex -0.2 -0.48000000000000004 0
endloop
endfacet
facet normal 0 -1 0
outer loop
vertex 0.21803333333333336 -0.5 -0.02
vertex 0.21577500000000002 -0.5 -0.042916666666666665
vertex 0.48000000000000004 -0.5 -0.042916666666666665
endloop
endfacet
facet normal 0 -1 0
outer loop
vertex 0.21803333333333336 -0.5 -0.02
vertex 0.48000000000000004 -0.5 -0.042916666666666665
vertex 0.48000000000000004 -0.5 -0.02
endloop
endfacet
facet normal 0 -1 0
outer loop
vertex -0.48000000000000004 -0.5 -0.02
vertex -0.48000000000000004 -0.5 -0.042916666666666665
vertex -0.21577500000000002 -0.5 -0.042916666666666665
endloop
endfacet
facet normal 0 -1 0
outer loop
vertex -0.48000000000000004 -0.5 -0.02
vertex -0.21577500000000002 -0.5 -0.042916666666666665
vertex -0.21803333333333336 -0.5 -0.02
endloop
endfacet
facet normal 0 -1 0
outer loop
vertex 0.21577500000000002 -0.5 -0.042916666666666665
vertex 0.20325000000000001 -0.5 -0.08419166666666666
vertex 0.48000000000000004 -0.5 -0.08419166666666666
endloop
endfacet
facet normal 0 -1 0
outer loop
vertex 0.21577500000000002 -0.5 -0.042916666666666665
vertex 0.48000000000000004 -0.5 -0.08419166666666666
vertex 0.48000000000000004 -0.5 -0.042916666666666665
endloop
endfacet
facet normal 0 -1 0
outer loop
vertex -0.48000000000000004 -0.5 -0.042916666666666665
vertex -0.48000000000000004 -0.5 -0.08419166666666666
vertex -0.20325000000000001 -0.5 -0.08419166666666666
endloop
endfacet
facet normal 0 -1 0
outer loop
vertex -0.48000000000000004 -0.5 -0.042916666666666665
vertex -0.20325000000000001 -0.5 -0.08419166666666666
vertex -0.21577500000000002 -0.5 -0.042916666666666665
endloop
endfacet
facet normal 0 -1 0
outer loop
vertex 0.20325000000000001 -0.5 -0.08419166666666666
vertex 0.182925 -0.5 -0.122225
vertex 0.48000000000000004 -0.5 -0.122225
endloop
endfacet
facet normal 0 -0.9999999999999999 0
outer loop
vertex 0.20325000000000001 -0.5 -0.08419166666666666
vertex 0.48000000000000004 -0.5 -0.122225
vertex 0.48000000000000004 -0.5 -0.08419166666666666
endloop
endfacet
facet normal 0 -1 0
outer loop
vertex -0.48000000000000004 -0.5 -0.08419166666666666
vertex -0.48000000000000004 -0.5 -0.122225
vertex -0.182925 -0.5 -0.122225
endloop
endfacet
facet normal 0 -0.9999999999999999 0
outer loop
vertex -0.48000000000000004 -0.5 -0.08419166666666666
vertex -0.182925 -0.5 -0.122225
vertex -0.20325000000000001 -0.5 -0.08419166666666666
endloop
endfacet
facet normal 0 -1 0
outer loop
vertex 0.182925 -0.5 -0.122225
vertex 0.1555666666666667 -0.5 -0.1555666666666667
vertex 0.48000000000000004 -0.5 -0.1555666666666667
endloop
endfacet
facet normal 0 -1 0
outer loop
vertex 0.182925 -0.5 -0.122225
vertex 0.48000000000000004 -0.5 -0.1555666666666667
vertex 0.48000000000000004 -0.5 -0.122225
endloop
endfacet
facet normal 0 -1 0
outer loop
vertex -0.48000000000000004 -0.5 -0.122225
vertex -0.48000000000000004 -0.5 -0.1555666666666667
vertex -0.1555666666666667 -0.5 -0.1555666666666667
endloop
endfacet
facet normal 0 -1 0
outer loop
vertex -0.48000000000000004 -0.5 -0.122225
vertex -0.1555666666666667 -0.5 -0.1555666666666667
vertex -0.182925 -0.5 -0.122225
endloop
endfacet
facet normal 0 -1 0
outer loop
vertex 0.1555666666666667 -0.5 -0.1555666666666667
vertex 0.122225 -0.5 -0.182925
vertex 0.48000000000000004 -0.5 -0.182925
endloop
endfacet
facet normal 0 -1 0
outer loop
vertex 0.1555666666666667 -0.5 -0.1555666666666667
vertex 0.48000000000000004 -0.5 -0.182925
vertex 0.48000000000000004 -0.5 -0.1555666666666667
endloop
endfacet
facet normal 0 -1 0
outer loop
vertex -0.48000000000000004 -0.5 -0.1555666666666667
vertex -0.48000000000000004 -0.5 -0.182925
vertex -0.122225 -0.5 -0.182925
endloop
endfacet
facet normal 0 -1 0
outer loop
vertex -0.48000000000000004 -0.5 -0.1555666666666667
vertex -0.122225 -0.5 -0.182925
vertex -0.1555666666666667 -0.5 -0.1555666666666667
endloop
endfacet
facet normal 0 -1 0
outer loop
vertex 0.122225 -0.5 -0.182925
vertex 0.08419166666666666 -0.5 -0.20325000000000001
vertex 0.48000000000000004 -0.5 -0.20325000000000001
endloop
endfacet
facet normal 0 -1 0
outer loop
vertex 0.122225 -0.5 -0.182925
vertex 0.48000000000000004 -0.5 -0.20325000000000001
vertex 0.48000000000000004 -0.5 -0.182925
endloop
endfacet
facet normal 0 -1 0
outer loop
vertex -0.48000000000000004 -0.5 -0.182925
vertex -0.48000000000000004 -0.5 -0.20325000000000001
vertex -0.08419166666666666 -0.5 -0.20325000000000001
endloop
endfacet
facet normal 0 -1 0
outer loop
vertex -0.48000000000000004 -0.5 -0.182925
vertex -0.08419166666666666 -0.5 -0.20325000000000001
vertex -0.122225 -0.5 -0.182925
endloop
endfacet
facet normal 0 -1 0
outer loop
vertex 0.08419166666666666 -0.5 -0.20325000000000001
vertex 0.042916666666666665 -0.5 -0.21577500000000002
vertex 0.48000000000000004 -0.5 -0.21577500000000002
endloop
endfacet
facet normal 0 -1 0
outer loop
vertex 0.08419166666666666 -0.5 -0.20325000000000001
vertex 0.48000000000000004 -0.5 -0.21577500000000002
vertex 0.48000000000000004 -0.5 -0.20325000000000001
endloop
endfacet
facet normal 0 -1 0
outer loop
vertex -0.48000000000000004 -0.5 -0.20325000000000001
vertex -0.48000000000000004 -0.5 -0.21577500000000002
vertex -0.042916666666666665 -0.5 -0.21577500000000002
endloop
endfacet
facet normal 0 -1 0
outer loop
vertex -0.48000000000000004 -0.5 -0.20325000000000001
vertex -0.042916666666666665 -0.5 -0.21577500000000002
vertex -0.08419166666666666 -0.5 -0.20325000000000001
endloop
endfacet
facet normal 0 -1 0
outer loop
vertex 0.042916666666666665 -0.5 -0.21577500000000002
vertex 0 -0.5 -0.22
vertex 0.48000000000000004 -0.5 -0.22
endloop
endfacet
facet normal 0 -1 0
outer loop
vertex 0.042916666666666665 -0.5 -0.21577500000000002
vertex 0.48000000000000004 -0.5 -0.22
vertex 0.48000000000000004 -0.5 -0.21577500000000002
endloop
endfacet
facet normal 0 -1 0
outer loop
vertex -0.48000000000000004 -0.5 -0.21577500000000002
vertex -0.48000000000000004 -0.5 -0.22
vertex 0 -0.5 -0.22
endloop
endfacet
facet normal 0 -1 0
outer loop
vertex -0.48000000000000004 -0.5 -0.21577500000000002
vertex 0 -0.5 -0.22
vertex -0.042916666666666665 -0.5 -0.21577500000000002
endloop
endfacet
facet normal 0 -1 0
outer loop
vertex 0 -0.5 -0.324
vertex 0 -0.5 -0.22
vertex -0.48000000000000004 -0.5 -0.22
endloop
endfacet
facet normal 0 -1 0
outer loop
vertex 0 -0.5 -0.324
vertex -0.48000000000000004 -0.5 -0.22
vertex -0.48000000000000004 -0.5 -0.48000000000000004
endloop
endfacet
facet normal 0 -1 0
outer loop
vertex 0 -0.5 -0.324
vertex -0.48000000000000004 -0.5 -0.48000000000000004
vertex 0.48000000000000004 -0.5 -0.48000000000000004
endloop
endfacet
facet normal 0 -1 0
outer loop
vertex 0 -0.5 -0.324
vertex 0.48000000000000004 -0.5 -0.48000000000000004
vertex 0.48000000000000004 -0.5 -0.22
endloop
endfacet
facet normal 0 -1 0
outer loop
vertex 0 -0.5 -0.324
vertex 0.48000000000000004 -0.5 -0.22
vertex 0 -0.5 -0.22
endloop
endfacet
facet normal 0.9569206581133995 0 0.2903495377571975
outer loop
vertex -0.19615833333333335 0.48000000000000004 -0.03901666666666667
vertex -0.19615833333333335 -0.48000000000000004 -0.03901666666666667
vertex -0.18477500000000002 -0.48000000000000004 -0.07653333333333334
endloop
endfacet
facet normal 0.9569206581133995 0 0.2903495377571975
outer loop
vertex -0.19615833333333335 0.48000000000000004 -0.03901666666666667
vertex -0.18477500000000002 -0.48000000000000004 -0.07653333333333334
vertex -0.18477500000000002 0.48000000000000004 -0.07653333333333334
endloop
endfacet
facet normal 0.8819408079173694 0 0.4713601715568019
outer loop
vertex -0.18477500000000002 0.48000000000000004 -0.07653333333333334
vertex -0.18477500000000002 -0.48000000000000004 -0.07653333333333334
vertex -0.16629166666666667 -0.48000000000000004 -0.11111666666666667
endloop
endfacet
facet normal 0.8819408079173694 0 0.4713601715568019
outer loop
vertex -0.18477500000000002 0.48000000000000004 -0.07653333333333334
vertex -0.16629166666666667 -0.48000000000000004 -0.11111666666666667
vertex -0.16629166666666667 0.48000000000000004 -0.11111666666666667
endloop
endfacet
facet normal 0.7730947517124123 0 0.6342905524085344
outer loop
vertex -0.16629166666666667 0.48000000000000004 -0.11111666666666667
vertex -0.16629166666666667 -0.48000000000000004 -0.11111666666666667
vertex -0.141425 -0.48000000000000004 -0.141425
endloop
endfacet
facet normal 0.7730947517124123 0 0.6342905524085344
outer loop
vertex -0.16629166666666667 0.48000000000000004 -0.11111666666666667
vertex -0.141425 -0.48000000000000004 -0.141425
vertex -0.141425 0.48000000000000004 -0.141425
endloop
endfacet
facet normal 0.6342905524085344 0 0.7730947517124123
outer loop
vertex -0.141425 0.48000000000000004 -0.141425
vertex -0.141425 -0.48000000000000004 -0.141425
vertex -0.11111666666666667 -0.48000000000000004 -0.16629166666666667
endloop
endfacet
facet normal 0.6342905524085344 0 0.7730947517124123
outer loop
vertex -0.141425 0.48000000000000004 -0.141425
vertex -0.11111666666666667 -0.48000000000000004 -0.16629166666666667
vertex -0.11111666666666667 0.48000000000000004 -0.16629166666666667
endloop
endfacet
facet normal 0.4713601715568019 0 0.8819408079173694
outer loop
vertex -0.11111666666666667 0.48000000000000004 -0.16629166666666667
vertex -0.11111666666666667 -0.48000000000000004 -0.16629166666666667
vertex -0.07653333333333334 -0.48000000000000004 -0.18477500000000002
endloop
endfacet
facet normal 0.4713601715568019 0 0.8819408079173694
outer loop
vertex -0.11111666666666667 0.48000000000000004 -0.16629166666666667
vertex -0.07653333333333334 -0.48000000000000004 -0.18477500000000002
vertex -0.07653333333333334 0.48000000000000004 -0.18477500000000002
endloop
endfacet
facet normal 0.2903495377571975 0 0.9569206581133995
outer loop
vertex -0.07653333333333334 0.48000000000000004 -0.18477500000000002
vertex -0.07653333333333334 -0.48000000000000004 -0.18477500000000002
vertex -0.03901666666666667 -0.48000000000000004 -0.19615833333333335
endloop
endfacet
facet normal 0.2903495377571975 0 0.9569206581133995
outer loop
vertex -0.07653333333333334 0.48000000000000004 -0.18477500000000002
vertex -0.03901666666666667 -0.48000000000000004 -0.19615833333333335
vertex -0.03901666666666667 0.48000000000000004 -0.19615833333333335
endloop
endfacet
facet normal 0.09798835239320593 0 0.9951875616160326
outer loop
vertex -0.03901666666666667 0.48000000000000004 -0.19615833333333335
vertex -0.03901666666666667 -0.48000000000000004 -0.19615833333333335
vertex 0 -0.48000000000000004 -0.2
endloop
endfacet
facet normal 0.09798835239320593 0 0.9951875616160326
outer loop
vertex -0.03901666666666667 0.48000000000000004 -0.19615833333333335
vertex 0 -0.48000000000000004 -0.2
vertex 0 0.48000000000000004 -0.2
endloop
endfacet
facet normal -0.09798835239320593 0 0.9951875616160326
outer loop
vertex 0 0.48000000000000004 -0.2
vertex 0 -0.48000000000000004 -0.2
vertex 0.03901666666666667 -0.48000000000000004 -0.19615833333333335
endloop
endfacet
facet normal -0.09798835239320593 0 0.9951875616160326
outer loop
vertex 0 0.48000000000000004 -0.2
vertex 0.03901666666666667 -0.48000000000000004 -0.19615833333333335
vertex 0.03901666666666667 0.48000000000000004 -0.19615833333333335
endloop
endfacet
facet normal -0.2903495377571975 0 0.9569206581133995
outer loop
vertex 0.03901666666666667 0.48000000000000004 -0.19615833333333335
vertex 0.03901666666666667 -0.48000000000000004 -0.19615833333333335
vertex 0.07653333333333334 -0.48000000000000004 -0.18477500000000002
endloop
endfacet
facet normal -0.2903495377571975 0 0.9569206581133995
outer loop
vertex 0.03901666666666667 0.48000000000000004 -0.19615833333333335
vertex 0.07653333333333334 -0.48000000000000004 -0.18477500000000002
vertex 0.07653333333333334 0.48000000000000004 -0.18477500000000002
endloop
endfacet
facet normal -0.4713601715568019 0 0.8819408079173694
outer loop
vertex 0.07653333333333334 0.48000000000000004 -0.18477500000000002
vertex 0.07653333333333334 -0.48000000000000004 -0.18477500000000002
vertex 0.11111666666666667 -0.48000000000000004 -0.16629166666666667
endloop
endfacet
facet normal -0.4713601715568019 0 0.8819408079173694
outer loop
vertex 0.07653333333333334 0.48000000000000004 -0.18477500000000002
vertex 0.11111666666666667 -0.48000000000000004 -0.16629166666666667
vertex 0.11111666666666667 0.48000000000000004 -0.16629166666666667
endloop
endfacet
facet normal -0.6342905524085344 0 0.7730947517124123
outer loop
vertex 0.11111666666666667 0.48000000000000004 -0.16629166666666667
vertex 0.11111666666666667 -0.48000000000000004 -0.16629166666666667
vertex 0.141425 -0.48000000000000004 -0.141425
endloop
endfacet
facet normal -0.6342905524085344 0 0.7730947517124123
outer loop
vertex 0.11111666666666667 0.48000000000000004 -0.16629166666666667
vertex 0.141425 -0.48000000000000004 -0.141425
vertex 0.141425 0.48000000000000004 -0.141425
endloop
endfacet
facet normal -0.7730947517124123 0 0.6342905524085344
outer loop
vertex 0.141425 0.48000000000000004 -0.141425
vertex 0.141425 -0.48000000000000004 -0.141425
vertex 0.16629166666666667 -0.48000000000000004 -0.11111666666666667
endloop
endfacet
facet normal -0.7730947517124123 0 0.6342905524085344
outer loop
vertex 0.141425 0.48000000000000004 -0.141425
vertex 0.16629166666666667 -0.48000000000000004 -0.11111666666666667
vertex 0.16629166666666667 0.48000000000000004 -0.11111666666666667
endloop
endfacet
facet normal -0.8819408079173694 0 0.4713601715568019
outer loop
vertex 0.16629166666666667 0.48000000000000004 -0.11111666666666667
vertex 0.16629166666666667 -0.48000000000000004 -0.11111666666666667
vertex 0.18477500000000002 -0.48000000000000004 -0.07653333333333334
endloop
endfacet
facet normal -0.8819408079173694 0 0.4713601715568019
outer loop
vertex 0.16629166666666667 0.48000000000000004 -0.11111666666666667
vertex 0.18477500000000002 -0.48000000000000004 -0.07653333333333334
vertex 0.18477500000000002 0.48000000000000004 -0.07653333333333334
endloop
endfacet
facet normal -0.9569206581133995 0 0.2903495377571975
outer loop
vertex 0.18477500000000002 0.48000000000000004 -0.07653333333333334
vertex 0.18477500000000002 -0.48000000000000004 -0.07653333333333334
vertex 0.19615833333333335 -0.48000000000000004 -0.03901666666666667
endloop
endfacet
facet normal -0.9569206581133995 0 0.2903495377571975
outer loop
vertex 0.18477500000000002 0.48000000000000004 -0.07653333333333334
vertex 0.19615833333333335 -0.48000000000000004 -0.03901666666666667
vertex 0.19615833333333335 0.48000000000000004 -0.03901666666666667
endloop
endfacet
facet normal 0.9951875616160326 0 0.09798835239320593
outer loop
vertex -0.2 0.48000000000000004 0
vertex -0.2 -0.48000000000000004 0
vertex -0.19615833333333335 -0.48000000000000004 -0.03901666666666667
endloop
endfacet
facet normal 0.9951875616160326 0 0.09798835239320593
outer loop
vertex -0.2 0.48000000000000004 0
vertex -0.19615833333333335 -0.48000000000000004 -0.03901666666666667
vertex -0.19615833333333335 0.48000000000000004 -0.03901666666666667
endloop
endfacet
facet normal -0.9951875616160326 0 0.09798835239320593
outer loop
vertex 0.2 0.48000000000000004 0
vertex 0.19615833333333335 0.48000000000000004 -0.03901666666666667
vertex 0.19615833333333335 -0.48000000000000004 -0.03901666666666667
endloop
endfacet
facet normal -0.9951875616160326 0 0.09798835239320593
outer loop
vertex 0.2 0.48000000000000004 0
vertex 0.19615833333333335 -0.48000000000000004 -0.03901666666666667
vertex 0.2 -0.48000000000000004 0
endloop
endfacet
endsolid JSCAD
